<?xml version="1.0" encoding="utf-8" standalone="no"?>
<!DOCTYPE svg PUBLIC "-//W3C//DTD SVG 1.1//EN"
  "http://www.w3.org/Graphics/SVG/1.1/DTD/svg11.dtd">
<!-- Created with matplotlib (https://matplotlib.org/) -->
<svg height="288pt" version="1.1" viewBox="0 0 432 288" width="432pt" xmlns="http://www.w3.org/2000/svg" xmlns:xlink="http://www.w3.org/1999/xlink">
 <defs>
  <style type="text/css">
*{stroke-linecap:butt;stroke-linejoin:round;}
  </style>
 </defs>
 <g id="figure_1">
  <g id="patch_1">
   <path d="M 0 288 
L 432 288 
L 432 0 
L 0 0 
z
" style="fill:#ffffff;"/>
  </g>
  <g id="axes_1">
   <g id="patch_2">
    <path d="M 54 252 
L 388.8 252 
L 388.8 34.56 
L 54 34.56 
z
" style="fill:#ffffff;"/>
   </g>
   <g id="matplotlib.axis_1">
    <g id="xtick_1">
     <g id="line2d_1">
      <path clip-path="url(#p9adb1a2b3c)" d="M 54 252 
L 54 34.56 
" style="fill:none;stroke:#b0b0b0;stroke-linecap:square;stroke-width:0.8;"/>
     </g>
     <g id="line2d_2">
      <defs>
       <path d="M 0 0 
L 0 3.5 
" id="m4d74b9c81b" style="stroke:#000000;stroke-width:0.8;"/>
      </defs>
      <g>
       <use style="stroke:#000000;stroke-width:0.8;" x="54" xlink:href="#m4d74b9c81b" y="252"/>
      </g>
     </g>
     <g id="text_1">
      <!-- 30000 -->
      <defs>
       <path d="M 40.578125 39.3125 
Q 47.65625 37.796875 51.625 33 
Q 55.609375 28.21875 55.609375 21.1875 
Q 55.609375 10.40625 48.1875 4.484375 
Q 40.765625 -1.421875 27.09375 -1.421875 
Q 22.515625 -1.421875 17.65625 -0.515625 
Q 12.796875 0.390625 7.625 2.203125 
L 7.625 11.71875 
Q 11.71875 9.328125 16.59375 8.109375 
Q 21.484375 6.890625 26.8125 6.890625 
Q 36.078125 6.890625 40.9375 10.546875 
Q 45.796875 14.203125 45.796875 21.1875 
Q 45.796875 27.640625 41.28125 31.265625 
Q 36.765625 34.90625 28.71875 34.90625 
L 20.21875 34.90625 
L 20.21875 43.015625 
L 29.109375 43.015625 
Q 36.375 43.015625 40.234375 45.921875 
Q 44.09375 48.828125 44.09375 54.296875 
Q 44.09375 59.90625 40.109375 62.90625 
Q 36.140625 65.921875 28.71875 65.921875 
Q 24.65625 65.921875 20.015625 65.03125 
Q 15.375 64.15625 9.8125 62.3125 
L 9.8125 71.09375 
Q 15.4375 72.65625 20.34375 73.4375 
Q 25.25 74.21875 29.59375 74.21875 
Q 40.828125 74.21875 47.359375 69.109375 
Q 53.90625 64.015625 53.90625 55.328125 
Q 53.90625 49.265625 50.4375 45.09375 
Q 46.96875 40.921875 40.578125 39.3125 
z
" id="DejaVuSans-51"/>
       <path d="M 31.78125 66.40625 
Q 24.171875 66.40625 20.328125 58.90625 
Q 16.5 51.421875 16.5 36.375 
Q 16.5 21.390625 20.328125 13.890625 
Q 24.171875 6.390625 31.78125 6.390625 
Q 39.453125 6.390625 43.28125 13.890625 
Q 47.125 21.390625 47.125 36.375 
Q 47.125 51.421875 43.28125 58.90625 
Q 39.453125 66.40625 31.78125 66.40625 
z
M 31.78125 74.21875 
Q 44.046875 74.21875 50.515625 64.515625 
Q 56.984375 54.828125 56.984375 36.375 
Q 56.984375 17.96875 50.515625 8.265625 
Q 44.046875 -1.421875 31.78125 -1.421875 
Q 19.53125 -1.421875 13.0625 8.265625 
Q 6.59375 17.96875 6.59375 36.375 
Q 6.59375 54.828125 13.0625 64.515625 
Q 19.53125 74.21875 31.78125 74.21875 
z
" id="DejaVuSans-48"/>
      </defs>
      <g transform="translate(38.09375 266.598437)scale(0.1 -0.1)">
       <use xlink:href="#DejaVuSans-51"/>
       <use x="63.623047" xlink:href="#DejaVuSans-48"/>
       <use x="127.246094" xlink:href="#DejaVuSans-48"/>
       <use x="190.869141" xlink:href="#DejaVuSans-48"/>
       <use x="254.492188" xlink:href="#DejaVuSans-48"/>
      </g>
     </g>
    </g>
    <g id="xtick_2">
     <g id="line2d_3">
      <path clip-path="url(#p9adb1a2b3c)" d="M 95.85 252 
L 95.85 34.56 
" style="fill:none;stroke:#b0b0b0;stroke-linecap:square;stroke-width:0.8;"/>
     </g>
     <g id="line2d_4">
      <g>
       <use style="stroke:#000000;stroke-width:0.8;" x="95.85" xlink:href="#m4d74b9c81b" y="252"/>
      </g>
     </g>
     <g id="text_2">
      <!-- 30500 -->
      <defs>
       <path d="M 10.796875 72.90625 
L 49.515625 72.90625 
L 49.515625 64.59375 
L 19.828125 64.59375 
L 19.828125 46.734375 
Q 21.96875 47.46875 24.109375 47.828125 
Q 26.265625 48.1875 28.421875 48.1875 
Q 40.625 48.1875 47.75 41.5 
Q 54.890625 34.8125 54.890625 23.390625 
Q 54.890625 11.625 47.5625 5.09375 
Q 40.234375 -1.421875 26.90625 -1.421875 
Q 22.3125 -1.421875 17.546875 -0.640625 
Q 12.796875 0.140625 7.71875 1.703125 
L 7.71875 11.625 
Q 12.109375 9.234375 16.796875 8.0625 
Q 21.484375 6.890625 26.703125 6.890625 
Q 35.15625 6.890625 40.078125 11.328125 
Q 45.015625 15.765625 45.015625 23.390625 
Q 45.015625 31 40.078125 35.4375 
Q 35.15625 39.890625 26.703125 39.890625 
Q 22.75 39.890625 18.8125 39.015625 
Q 14.890625 38.140625 10.796875 36.28125 
z
" id="DejaVuSans-53"/>
      </defs>
      <g transform="translate(79.94375 266.598437)scale(0.1 -0.1)">
       <use xlink:href="#DejaVuSans-51"/>
       <use x="63.623047" xlink:href="#DejaVuSans-48"/>
       <use x="127.246094" xlink:href="#DejaVuSans-53"/>
       <use x="190.869141" xlink:href="#DejaVuSans-48"/>
       <use x="254.492188" xlink:href="#DejaVuSans-48"/>
      </g>
     </g>
    </g>
    <g id="xtick_3">
     <g id="line2d_5">
      <path clip-path="url(#p9adb1a2b3c)" d="M 137.7 252 
L 137.7 34.56 
" style="fill:none;stroke:#b0b0b0;stroke-linecap:square;stroke-width:0.8;"/>
     </g>
     <g id="line2d_6">
      <g>
       <use style="stroke:#000000;stroke-width:0.8;" x="137.7" xlink:href="#m4d74b9c81b" y="252"/>
      </g>
     </g>
     <g id="text_3">
      <!-- 31000 -->
      <defs>
       <path d="M 12.40625 8.296875 
L 28.515625 8.296875 
L 28.515625 63.921875 
L 10.984375 60.40625 
L 10.984375 69.390625 
L 28.421875 72.90625 
L 38.28125 72.90625 
L 38.28125 8.296875 
L 54.390625 8.296875 
L 54.390625 0 
L 12.40625 0 
z
" id="DejaVuSans-49"/>
      </defs>
      <g transform="translate(121.79375 266.598437)scale(0.1 -0.1)">
       <use xlink:href="#DejaVuSans-51"/>
       <use x="63.623047" xlink:href="#DejaVuSans-49"/>
       <use x="127.246094" xlink:href="#DejaVuSans-48"/>
       <use x="190.869141" xlink:href="#DejaVuSans-48"/>
       <use x="254.492188" xlink:href="#DejaVuSans-48"/>
      </g>
     </g>
    </g>
    <g id="xtick_4">
     <g id="line2d_7">
      <path clip-path="url(#p9adb1a2b3c)" d="M 179.55 252 
L 179.55 34.56 
" style="fill:none;stroke:#b0b0b0;stroke-linecap:square;stroke-width:0.8;"/>
     </g>
     <g id="line2d_8">
      <g>
       <use style="stroke:#000000;stroke-width:0.8;" x="179.55" xlink:href="#m4d74b9c81b" y="252"/>
      </g>
     </g>
     <g id="text_4">
      <!-- 31500 -->
      <g transform="translate(163.64375 266.598437)scale(0.1 -0.1)">
       <use xlink:href="#DejaVuSans-51"/>
       <use x="63.623047" xlink:href="#DejaVuSans-49"/>
       <use x="127.246094" xlink:href="#DejaVuSans-53"/>
       <use x="190.869141" xlink:href="#DejaVuSans-48"/>
       <use x="254.492188" xlink:href="#DejaVuSans-48"/>
      </g>
     </g>
    </g>
    <g id="xtick_5">
     <g id="line2d_9">
      <path clip-path="url(#p9adb1a2b3c)" d="M 221.4 252 
L 221.4 34.56 
" style="fill:none;stroke:#b0b0b0;stroke-linecap:square;stroke-width:0.8;"/>
     </g>
     <g id="line2d_10">
      <g>
       <use style="stroke:#000000;stroke-width:0.8;" x="221.4" xlink:href="#m4d74b9c81b" y="252"/>
      </g>
     </g>
     <g id="text_5">
      <!-- 32000 -->
      <defs>
       <path d="M 19.1875 8.296875 
L 53.609375 8.296875 
L 53.609375 0 
L 7.328125 0 
L 7.328125 8.296875 
Q 12.9375 14.109375 22.625 23.890625 
Q 32.328125 33.6875 34.8125 36.53125 
Q 39.546875 41.84375 41.421875 45.53125 
Q 43.3125 49.21875 43.3125 52.78125 
Q 43.3125 58.59375 39.234375 62.25 
Q 35.15625 65.921875 28.609375 65.921875 
Q 23.96875 65.921875 18.8125 64.3125 
Q 13.671875 62.703125 7.8125 59.421875 
L 7.8125 69.390625 
Q 13.765625 71.78125 18.9375 73 
Q 24.125 74.21875 28.421875 74.21875 
Q 39.75 74.21875 46.484375 68.546875 
Q 53.21875 62.890625 53.21875 53.421875 
Q 53.21875 48.921875 51.53125 44.890625 
Q 49.859375 40.875 45.40625 35.40625 
Q 44.1875 33.984375 37.640625 27.21875 
Q 31.109375 20.453125 19.1875 8.296875 
z
" id="DejaVuSans-50"/>
      </defs>
      <g transform="translate(205.49375 266.598437)scale(0.1 -0.1)">
       <use xlink:href="#DejaVuSans-51"/>
       <use x="63.623047" xlink:href="#DejaVuSans-50"/>
       <use x="127.246094" xlink:href="#DejaVuSans-48"/>
       <use x="190.869141" xlink:href="#DejaVuSans-48"/>
       <use x="254.492188" xlink:href="#DejaVuSans-48"/>
      </g>
     </g>
    </g>
    <g id="xtick_6">
     <g id="line2d_11">
      <path clip-path="url(#p9adb1a2b3c)" d="M 263.25 252 
L 263.25 34.56 
" style="fill:none;stroke:#b0b0b0;stroke-linecap:square;stroke-width:0.8;"/>
     </g>
     <g id="line2d_12">
      <g>
       <use style="stroke:#000000;stroke-width:0.8;" x="263.25" xlink:href="#m4d74b9c81b" y="252"/>
      </g>
     </g>
     <g id="text_6">
      <!-- 32500 -->
      <g transform="translate(247.34375 266.598437)scale(0.1 -0.1)">
       <use xlink:href="#DejaVuSans-51"/>
       <use x="63.623047" xlink:href="#DejaVuSans-50"/>
       <use x="127.246094" xlink:href="#DejaVuSans-53"/>
       <use x="190.869141" xlink:href="#DejaVuSans-48"/>
       <use x="254.492188" xlink:href="#DejaVuSans-48"/>
      </g>
     </g>
    </g>
    <g id="xtick_7">
     <g id="line2d_13">
      <path clip-path="url(#p9adb1a2b3c)" d="M 305.1 252 
L 305.1 34.56 
" style="fill:none;stroke:#b0b0b0;stroke-linecap:square;stroke-width:0.8;"/>
     </g>
     <g id="line2d_14">
      <g>
       <use style="stroke:#000000;stroke-width:0.8;" x="305.1" xlink:href="#m4d74b9c81b" y="252"/>
      </g>
     </g>
     <g id="text_7">
      <!-- 33000 -->
      <g transform="translate(289.19375 266.598437)scale(0.1 -0.1)">
       <use xlink:href="#DejaVuSans-51"/>
       <use x="63.623047" xlink:href="#DejaVuSans-51"/>
       <use x="127.246094" xlink:href="#DejaVuSans-48"/>
       <use x="190.869141" xlink:href="#DejaVuSans-48"/>
       <use x="254.492188" xlink:href="#DejaVuSans-48"/>
      </g>
     </g>
    </g>
    <g id="xtick_8">
     <g id="line2d_15">
      <path clip-path="url(#p9adb1a2b3c)" d="M 346.95 252 
L 346.95 34.56 
" style="fill:none;stroke:#b0b0b0;stroke-linecap:square;stroke-width:0.8;"/>
     </g>
     <g id="line2d_16">
      <g>
       <use style="stroke:#000000;stroke-width:0.8;" x="346.95" xlink:href="#m4d74b9c81b" y="252"/>
      </g>
     </g>
     <g id="text_8">
      <!-- 33500 -->
      <g transform="translate(331.04375 266.598437)scale(0.1 -0.1)">
       <use xlink:href="#DejaVuSans-51"/>
       <use x="63.623047" xlink:href="#DejaVuSans-51"/>
       <use x="127.246094" xlink:href="#DejaVuSans-53"/>
       <use x="190.869141" xlink:href="#DejaVuSans-48"/>
       <use x="254.492188" xlink:href="#DejaVuSans-48"/>
      </g>
     </g>
    </g>
    <g id="xtick_9">
     <g id="line2d_17">
      <path clip-path="url(#p9adb1a2b3c)" d="M 388.8 252 
L 388.8 34.56 
" style="fill:none;stroke:#b0b0b0;stroke-linecap:square;stroke-width:0.8;"/>
     </g>
     <g id="line2d_18">
      <g>
       <use style="stroke:#000000;stroke-width:0.8;" x="388.8" xlink:href="#m4d74b9c81b" y="252"/>
      </g>
     </g>
     <g id="text_9">
      <!-- 34000 -->
      <defs>
       <path d="M 37.796875 64.3125 
L 12.890625 25.390625 
L 37.796875 25.390625 
z
M 35.203125 72.90625 
L 47.609375 72.90625 
L 47.609375 25.390625 
L 58.015625 25.390625 
L 58.015625 17.1875 
L 47.609375 17.1875 
L 47.609375 0 
L 37.796875 0 
L 37.796875 17.1875 
L 4.890625 17.1875 
L 4.890625 26.703125 
z
" id="DejaVuSans-52"/>
      </defs>
      <g transform="translate(372.89375 266.598437)scale(0.1 -0.1)">
       <use xlink:href="#DejaVuSans-51"/>
       <use x="63.623047" xlink:href="#DejaVuSans-52"/>
       <use x="127.246094" xlink:href="#DejaVuSans-48"/>
       <use x="190.869141" xlink:href="#DejaVuSans-48"/>
       <use x="254.492188" xlink:href="#DejaVuSans-48"/>
      </g>
     </g>
    </g>
   </g>
   <g id="matplotlib.axis_2">
    <g id="ytick_1">
     <g id="line2d_19">
      <path clip-path="url(#p9adb1a2b3c)" d="M 54 233.767266 
L 388.8 233.767266 
" style="fill:none;stroke:#b0b0b0;stroke-linecap:square;stroke-width:0.8;"/>
     </g>
     <g id="line2d_20">
      <defs>
       <path d="M 0 0 
L -3.5 0 
" id="m7e2222361a" style="stroke:#000000;stroke-width:0.8;"/>
      </defs>
      <g>
       <use style="stroke:#000000;stroke-width:0.8;" x="54" xlink:href="#m7e2222361a" y="233.767266"/>
      </g>
     </g>
     <g id="text_10">
      <!-- −30000 -->
      <defs>
       <path d="M 10.59375 35.5 
L 73.1875 35.5 
L 73.1875 27.203125 
L 10.59375 27.203125 
z
" id="DejaVuSans-8722"/>
      </defs>
      <g transform="translate(6.807812 237.566485)scale(0.1 -0.1)">
       <use xlink:href="#DejaVuSans-8722"/>
       <use x="83.789062" xlink:href="#DejaVuSans-51"/>
       <use x="147.412109" xlink:href="#DejaVuSans-48"/>
       <use x="211.035156" xlink:href="#DejaVuSans-48"/>
       <use x="274.658203" xlink:href="#DejaVuSans-48"/>
       <use x="338.28125" xlink:href="#DejaVuSans-48"/>
      </g>
     </g>
    </g>
    <g id="ytick_2">
     <g id="line2d_21">
      <path clip-path="url(#p9adb1a2b3c)" d="M 54 203.604341 
L 388.8 203.604341 
" style="fill:none;stroke:#b0b0b0;stroke-linecap:square;stroke-width:0.8;"/>
     </g>
     <g id="line2d_22">
      <g>
       <use style="stroke:#000000;stroke-width:0.8;" x="54" xlink:href="#m7e2222361a" y="203.604341"/>
      </g>
     </g>
     <g id="text_11">
      <!-- −20000 -->
      <g transform="translate(6.807812 207.40356)scale(0.1 -0.1)">
       <use xlink:href="#DejaVuSans-8722"/>
       <use x="83.789062" xlink:href="#DejaVuSans-50"/>
       <use x="147.412109" xlink:href="#DejaVuSans-48"/>
       <use x="211.035156" xlink:href="#DejaVuSans-48"/>
       <use x="274.658203" xlink:href="#DejaVuSans-48"/>
       <use x="338.28125" xlink:href="#DejaVuSans-48"/>
      </g>
     </g>
    </g>
    <g id="ytick_3">
     <g id="line2d_23">
      <path clip-path="url(#p9adb1a2b3c)" d="M 54 173.441417 
L 388.8 173.441417 
" style="fill:none;stroke:#b0b0b0;stroke-linecap:square;stroke-width:0.8;"/>
     </g>
     <g id="line2d_24">
      <g>
       <use style="stroke:#000000;stroke-width:0.8;" x="54" xlink:href="#m7e2222361a" y="173.441417"/>
      </g>
     </g>
     <g id="text_12">
      <!-- −10000 -->
      <g transform="translate(6.807812 177.240635)scale(0.1 -0.1)">
       <use xlink:href="#DejaVuSans-8722"/>
       <use x="83.789062" xlink:href="#DejaVuSans-49"/>
       <use x="147.412109" xlink:href="#DejaVuSans-48"/>
       <use x="211.035156" xlink:href="#DejaVuSans-48"/>
       <use x="274.658203" xlink:href="#DejaVuSans-48"/>
       <use x="338.28125" xlink:href="#DejaVuSans-48"/>
      </g>
     </g>
    </g>
    <g id="ytick_4">
     <g id="line2d_25">
      <path clip-path="url(#p9adb1a2b3c)" d="M 54 143.278492 
L 388.8 143.278492 
" style="fill:none;stroke:#b0b0b0;stroke-linecap:square;stroke-width:0.8;"/>
     </g>
     <g id="line2d_26">
      <g>
       <use style="stroke:#000000;stroke-width:0.8;" x="54" xlink:href="#m7e2222361a" y="143.278492"/>
      </g>
     </g>
     <g id="text_13">
      <!-- 0 -->
      <g transform="translate(40.6375 147.077711)scale(0.1 -0.1)">
       <use xlink:href="#DejaVuSans-48"/>
      </g>
     </g>
    </g>
    <g id="ytick_5">
     <g id="line2d_27">
      <path clip-path="url(#p9adb1a2b3c)" d="M 54 113.115567 
L 388.8 113.115567 
" style="fill:none;stroke:#b0b0b0;stroke-linecap:square;stroke-width:0.8;"/>
     </g>
     <g id="line2d_28">
      <g>
       <use style="stroke:#000000;stroke-width:0.8;" x="54" xlink:href="#m7e2222361a" y="113.115567"/>
      </g>
     </g>
     <g id="text_14">
      <!-- 10000 -->
      <g transform="translate(15.1875 116.914786)scale(0.1 -0.1)">
       <use xlink:href="#DejaVuSans-49"/>
       <use x="63.623047" xlink:href="#DejaVuSans-48"/>
       <use x="127.246094" xlink:href="#DejaVuSans-48"/>
       <use x="190.869141" xlink:href="#DejaVuSans-48"/>
       <use x="254.492188" xlink:href="#DejaVuSans-48"/>
      </g>
     </g>
    </g>
    <g id="ytick_6">
     <g id="line2d_29">
      <path clip-path="url(#p9adb1a2b3c)" d="M 54 82.952642 
L 388.8 82.952642 
" style="fill:none;stroke:#b0b0b0;stroke-linecap:square;stroke-width:0.8;"/>
     </g>
     <g id="line2d_30">
      <g>
       <use style="stroke:#000000;stroke-width:0.8;" x="54" xlink:href="#m7e2222361a" y="82.952642"/>
      </g>
     </g>
     <g id="text_15">
      <!-- 20000 -->
      <g transform="translate(15.1875 86.751861)scale(0.1 -0.1)">
       <use xlink:href="#DejaVuSans-50"/>
       <use x="63.623047" xlink:href="#DejaVuSans-48"/>
       <use x="127.246094" xlink:href="#DejaVuSans-48"/>
       <use x="190.869141" xlink:href="#DejaVuSans-48"/>
       <use x="254.492188" xlink:href="#DejaVuSans-48"/>
      </g>
     </g>
    </g>
    <g id="ytick_7">
     <g id="line2d_31">
      <path clip-path="url(#p9adb1a2b3c)" d="M 54 52.789718 
L 388.8 52.789718 
" style="fill:none;stroke:#b0b0b0;stroke-linecap:square;stroke-width:0.8;"/>
     </g>
     <g id="line2d_32">
      <g>
       <use style="stroke:#000000;stroke-width:0.8;" x="54" xlink:href="#m7e2222361a" y="52.789718"/>
      </g>
     </g>
     <g id="text_16">
      <!-- 30000 -->
      <g transform="translate(15.1875 56.588936)scale(0.1 -0.1)">
       <use xlink:href="#DejaVuSans-51"/>
       <use x="63.623047" xlink:href="#DejaVuSans-48"/>
       <use x="127.246094" xlink:href="#DejaVuSans-48"/>
       <use x="190.869141" xlink:href="#DejaVuSans-48"/>
       <use x="254.492188" xlink:href="#DejaVuSans-48"/>
      </g>
     </g>
    </g>
   </g>
   <g id="line2d_33">
    <path clip-path="url(#p9adb1a2b3c)" d="M 53.9163 123.488597 
L 54.3348 135.354692 
L 54.6696 142.675233 
L 54.7533 143.148791 
L 54.837 142.958765 
L 55.0044 140.747822 
L 55.674 127.886351 
L 55.7577 128.381023 
L 55.9251 131.306827 
L 56.8458 153.352909 
L 57.0132 153.859646 
L 57.2643 153.817418 
L 57.4317 154.426709 
L 57.6828 157.195665 
L 58.2687 165.101368 
L 58.3524 165.225036 
L 58.4361 164.917374 
L 58.6035 163.008061 
L 59.2731 152.173538 
L 59.4405 154.33622 
L 59.859 167.644102 
L 60.1101 172.838158 
L 60.1938 173.284569 
L 60.2775 173.076445 
L 60.4449 171.004252 
L 61.4493 153.446414 
L 61.7841 151.953349 
L 62.0352 148.451433 
L 62.4537 137.915524 
L 62.9559 125.720653 
L 63.0396 125.247095 
L 63.1233 125.557774 
L 63.2907 128.552952 
L 64.044 148.695753 
L 64.2114 146.343045 
L 64.5462 134.000376 
L 65.0484 114.150155 
L 65.2995 110.675387 
L 65.718 108.675585 
L 66.3876 101.466646 
L 66.555 102.163409 
L 67.3083 106.301762 
L 67.4757 106.721027 
L 67.5594 106.687848 
L 67.7268 106.060459 
L 68.3964 102.302159 
L 68.5638 102.416778 
L 68.8149 103.095444 
L 69.1497 105.010789 
L 69.7356 108.189962 
L 70.0704 110.907641 
L 70.5726 117.715413 
L 71.4096 129.83186 
L 71.4933 129.985691 
L 71.6607 129.632785 
L 71.9118 128.966184 
L 71.9955 129.177325 
L 72.1629 130.818188 
L 72.414 137.101125 
L 73.5021 173.459514 
L 73.8369 179.899299 
L 74.2554 187.572747 
L 74.3391 187.388753 
L 74.8413 182.330431 
L 75.0087 183.621404 
L 75.2598 185.95903 
L 75.3435 185.922835 
L 75.5109 183.524882 
L 75.9294 173.833535 
L 76.0131 174.05674 
L 76.1805 177.257027 
L 77.1012 203.091572 
L 77.2686 203.755156 
L 77.3523 203.622439 
L 77.5197 202.633095 
L 78.1056 196.65782 
L 78.4404 191.36121 
L 78.9426 183.099585 
L 79.1937 181.841791 
L 79.2774 181.814644 
L 79.4448 182.496327 
L 79.6122 184.508194 
L 80.1981 195.44527 
L 80.2818 195.240162 
L 80.4492 192.591858 
L 81.4536 167.508369 
L 81.7047 166.024353 
L 81.9558 165.315525 
L 82.1232 163.949144 
L 82.7928 154.752468 
L 82.8765 154.963609 
L 83.0439 156.707026 
L 83.4624 165.466339 
L 83.7972 171.227458 
L 83.8809 171.682918 
L 83.9646 171.61656 
L 84.132 169.900289 
L 84.4668 162.042847 
L 84.8016 154.900267 
L 84.969 153.763124 
L 85.0527 153.829483 
L 85.3038 155.488444 
L 85.5549 156.70401 
L 85.6386 156.526048 
L 85.806 155.14157 
L 86.4756 146.119839 
L 86.643 147.893419 
L 86.8941 155.702601 
L 87.3963 175.429153 
L 87.48 176.388334 
L 87.5637 176.255617 
L 87.7311 173.00707 
L 88.4844 149.3895 
L 88.5681 149.332191 
L 88.7355 151.313895 
L 89.3214 161.747251 
L 89.4888 160.097339 
L 89.991 151.129901 
L 90.0747 151.11482 
L 90.2421 152.951742 
L 90.5769 161.343067 
L 90.9954 171.224442 
L 91.1628 172.578757 
L 91.2465 172.322372 
L 91.4139 169.773605 
L 92.2509 149.099936 
L 92.4183 150.614115 
L 92.9205 158.676665 
L 93.0042 158.429329 
L 93.1716 155.512574 
L 94.0086 132.069949 
L 94.0923 131.852776 
L 94.176 131.988509 
L 94.5945 133.743991 
L 94.7619 132.193617 
L 95.013 124.960548 
L 95.5989 103.885712 
L 95.6826 103.348812 
L 95.7663 103.650441 
L 95.9337 106.31986 
L 96.6033 120.734722 
L 96.687 120.813146 
L 96.8544 118.967175 
L 97.1892 109.013409 
L 97.524 100.944827 
L 97.6077 100.474285 
L 97.6914 100.570807 
L 98.1936 103.523757 
L 98.2773 103.345796 
L 98.4447 102.187539 
L 98.6958 98.320653 
L 99.3654 82.566557 
L 99.4491 82.599736 
L 99.6165 84.991656 
L 100.2024 98.730868 
L 100.2861 99.011384 
L 100.3698 98.761031 
L 100.5372 97.008565 
L 101.1231 89.491964 
L 101.2068 89.82074 
L 101.3742 92.21266 
L 102.2949 111.1037 
L 102.7134 113.028095 
L 102.9645 116.146941 
L 103.2993 124.143132 
L 103.7178 133.97323 
L 103.8015 134.473934 
L 103.8852 134.338201 
L 104.0526 132.431904 
L 104.8059 118.201036 
L 104.8896 118.318672 
L 105.057 120.906651 
L 105.3918 133.333776 
L 105.8103 147.163477 
L 106.0614 149.2598 
L 106.1451 149.057708 
L 106.3962 146.81057 
L 106.731 144.110989 
L 106.8147 144.39452 
L 106.9821 146.741196 
L 107.568 159.587585 
L 107.6517 159.346282 
L 107.8191 156.924199 
L 108.3213 148.412222 
L 108.405 148.394124 
L 108.5724 149.953547 
L 108.8235 156.055507 
L 109.4094 172.801963 
L 109.4931 172.931663 
L 109.6605 171.124904 
L 110.2464 162.263037 
L 110.4975 161.415458 
L 110.7486 161.309888 
L 110.8323 161.282742 
L 110.916 161.128911 
L 111.0834 159.928426 
L 111.2508 156.613521 
L 111.5856 143.097514 
L 111.9204 131.578293 
L 112.0878 130.052049 
L 112.1715 130.347646 
L 112.3389 132.778778 
L 112.6737 143.305638 
L 113.0922 157.916559 
L 113.1759 158.960196 
L 113.2596 158.914952 
L 113.427 155.476379 
L 114.3477 124.541283 
L 115.101 115.148548 
L 115.7706 103.424219 
L 115.938 104.621688 
L 116.3565 108.672568 
L 116.4402 108.729878 
L 116.6076 108.367923 
L 116.9424 107.137275 
L 117.1935 105.173669 
L 117.6957 100.715589 
L 117.7794 100.827192 
L 118.0305 102.673163 
L 118.2816 104.33514 
L 118.3653 104.455791 
L 118.5327 104.057641 
L 118.8675 103.047183 
L 119.0349 103.433268 
L 119.286 105.182718 
L 119.6208 109.613652 
L 120.2904 119.669971 
L 120.3741 119.745378 
L 120.5415 118.650464 
L 121.1274 111.788398 
L 121.2111 111.993506 
L 121.3785 113.806298 
L 121.6296 119.672987 
L 122.2992 143.718871 
L 123.471 183.913984 
L 123.6384 185.645336 
L 123.7221 185.34069 
L 123.8895 182.562685 
L 124.3917 172.699409 
L 124.7265 169.62279 
L 124.8102 169.496106 
L 124.8939 169.873143 
L 125.0613 172.533513 
L 125.3961 184.719334 
L 125.8146 197.577789 
L 125.982 198.461563 
L 126.1494 197.59287 
L 126.5679 194.703262 
L 126.7353 194.47704 
L 126.9027 195.032038 
L 127.4049 198.651589 
L 127.4886 198.588247 
L 127.656 196.847846 
L 128.3256 183.733007 
L 128.493 185.177811 
L 128.7441 190.935913 
L 129.2463 204.083932 
L 129.33 204.421757 
L 129.4137 203.960264 
L 129.5811 200.22911 
L 130.2507 179.609735 
L 130.3344 179.232698 
L 130.4181 179.256828 
L 130.8366 180.734812 
L 130.9203 180.48446 
L 131.0877 178.707863 
L 131.3388 172.171557 
L 131.9247 152.963807 
L 132.0084 152.689324 
L 132.1758 154.885185 
L 132.5943 168.705837 
L 132.9291 177.166538 
L 133.0128 177.857269 
L 133.0965 177.787894 
L 133.2639 175.236111 
L 133.5987 162.986947 
L 133.9335 152.70139 
L 134.1009 151.627589 
L 134.2683 152.951742 
L 134.6868 157.85925 
L 134.7705 157.955771 
L 134.9379 156.779417 
L 135.189 152.209734 
L 135.6075 144.940469 
L 135.6912 145.061121 
L 135.8586 147.691328 
L 136.1934 160.012882 
L 136.5282 170.177788 
L 136.6119 170.901698 
L 136.6956 170.765965 
L 136.863 168.159888 
L 137.6163 150.466317 
L 137.7837 151.871909 
L 138.4533 161.391328 
L 138.537 161.225432 
L 138.7044 159.569488 
L 139.2903 151.090689 
L 139.374 151.57028 
L 139.5414 154.402578 
L 140.211 169.41165 
L 140.2947 169.505155 
L 140.4621 168.003041 
L 140.7132 162.226841 
L 141.1317 152.454054 
L 141.2154 152.185604 
L 141.2991 152.731552 
L 141.4665 156.016295 
L 142.0524 170.865503 
L 142.1361 170.768981 
L 142.3035 168.271491 
L 142.722 154.306057 
L 143.0568 145.142561 
L 143.2242 143.661561 
L 143.3079 143.655528 
L 143.559 144.63884 
L 143.6427 144.58153 
L 143.8101 142.934635 
L 144.0612 136.347052 
L 144.6471 118.581089 
L 144.8982 115.655285 
L 144.9819 115.579878 
L 145.1493 116.780362 
L 145.7352 125.409975 
L 145.8189 125.322503 
L 145.9863 123.485581 
L 146.4048 113.441327 
L 146.7396 107.330318 
L 146.907 106.754206 
L 147.0744 107.782762 
L 147.4092 110.515523 
L 147.4929 110.286285 
L 147.6603 107.981837 
L 148.0788 95.28023 
L 148.4136 88.460392 
L 148.4973 88.125584 
L 148.581 88.363871 
L 148.7484 90.387803 
L 149.3343 101.149935 
L 149.418 100.784963 
L 149.5854 97.545465 
L 150.255 79.381352 
L 150.3387 79.550264 
L 150.5061 81.308763 
L 150.8409 89.139058 
L 151.3431 101.720014 
L 151.5942 103.61123 
L 151.8453 103.961119 
L 152.0127 105.318451 
L 152.2638 110.500442 
L 152.766 122.194607 
L 153.0171 123.928976 
L 153.1008 123.663542 
L 153.2682 121.790424 
L 153.9378 110.581881 
L 154.0215 111.094651 
L 154.1889 114.135074 
L 154.6074 128.673604 
L 154.9422 137.939654 
L 155.1096 139.414621 
L 155.1933 139.408589 
L 155.6118 137.469113 
L 155.6955 137.725497 
L 155.8629 139.462882 
L 156.6999 152.004626 
L 156.8673 150.632213 
L 157.2021 143.878734 
L 157.4532 139.556387 
L 157.5369 139.263807 
L 157.6206 139.767527 
L 157.788 143.151808 
L 158.2065 159.816823 
L 158.625 173.019136 
L 158.7924 173.866714 
L 158.9598 171.797537 
L 159.5457 160.465326 
L 159.6294 160.459294 
L 159.7968 161.662794 
L 160.2153 165.415062 
L 160.299 165.306476 
L 160.4664 163.442407 
L 160.7175 156.149012 
L 161.136 142.171513 
L 161.3034 141.082631 
L 161.4708 143.290557 
L 162.1404 158.022129 
L 162.2241 158.115635 
L 162.3915 156.978492 
L 162.7263 151.069575 
L 163.1448 143.634414 
L 163.3122 142.9467 
L 163.5633 143.266427 
L 163.647 143.034172 
L 163.8144 141.158038 
L 164.0655 134.642847 
L 164.8188 111.703942 
L 164.9862 110.108324 
L 165.0699 110.235008 
L 165.2373 112.087011 
L 165.5721 116.569222 
L 165.6558 116.698923 
L 165.8232 115.359689 
L 166.6602 103.596148 
L 166.9113 102.299142 
L 166.995 102.172458 
L 167.0787 102.241833 
L 167.2461 102.920499 
L 167.5809 104.594541 
L 167.6646 104.624704 
L 167.832 104.096853 
L 168.0831 103.029085 
L 168.1668 103.014004 
L 168.3342 103.737914 
L 168.669 107.12521 
L 169.3386 114.792626 
L 169.4223 114.355263 
L 169.5897 111.507883 
L 170.0919 100.703524 
L 170.1756 100.60097 
L 170.343 102.100067 
L 170.7615 110.497425 
L 171.9333 137.396722 
L 172.7703 168.536925 
L 172.854 169.034613 
L 172.9377 168.913962 
L 173.1051 167.134349 
L 173.7747 154.984723 
L 173.9421 157.98895 
L 174.2769 172.599871 
L 174.6954 189.753526 
L 174.9465 193.29767 
L 175.0302 193.023187 
L 175.1976 190.498551 
L 175.6998 179.793729 
L 175.7835 179.896282 
L 175.9509 182.963852 
L 176.5368 200.732831 
L 176.6205 200.657424 
L 176.7879 197.858304 
L 177.4575 178.620391 
L 177.5412 179.036639 
L 177.7086 182.689369 
L 178.4619 207.64919 
L 178.5456 207.793972 
L 178.713 206.349167 
L 178.9641 200.621228 
L 179.3826 190.724772 
L 179.6337 188.543993 
L 179.8011 188.32682 
L 179.9685 188.176005 
L 180.1359 187.056961 
L 180.387 181.881003 
L 181.1403 159.569488 
L 181.224 160.043045 
L 181.3914 163.412244 
L 182.061 182.38774 
L 182.1447 182.423936 
L 182.3121 180.222042 
L 182.6469 168.989369 
L 183.0654 156.221403 
L 183.1491 155.49146 
L 183.2328 155.51559 
L 183.4002 157.286154 
L 183.735 161.107797 
L 183.8187 160.984129 
L 183.9861 159.213565 
L 184.6557 148.734965 
L 184.7394 148.704802 
L 184.9068 150.092297 
L 185.1579 155.636242 
L 185.6601 167.294213 
L 185.7438 167.466141 
L 185.9112 165.837343 
L 186.4134 154.25478 
L 186.7482 149.519201 
L 186.8319 149.359337 
L 186.9156 149.721293 
L 187.083 152.00161 
L 187.6689 162.4229 
L 187.7526 162.2932 
L 187.92 160.62519 
L 188.4222 153.820434 
L 188.5059 153.564049 
L 188.5896 153.675652 
L 188.757 155.029967 
L 189.4266 164.633843 
L 189.5103 164.27792 
L 189.7614 160.371821 
L 190.1799 153.784239 
L 190.2636 153.766141 
L 190.431 155.615128 
L 190.7658 165.200906 
L 191.1843 176.189259 
L 191.268 176.575344 
L 191.3517 176.162112 
L 191.5191 173.157885 
L 192.1887 157.461099 
L 192.2724 157.295203 
L 192.6072 157.750663 
L 192.7746 156.667814 
L 193.0257 152.233864 
L 193.4442 139.09791 
L 193.8627 126.893991 
L 194.0301 125.648262 
L 194.1138 126.09769 
L 194.3649 130.664357 
L 194.6997 137.312265 
L 194.7834 137.924573 
L 194.8671 137.89441 
L 195.0345 135.864445 
L 195.3693 125.95894 
L 195.7878 114.162221 
L 195.9552 112.629944 
L 196.0389 112.654074 
L 196.2063 113.827412 
L 196.5411 116.330935 
L 196.6248 116.288707 
L 196.7922 115.199825 
L 197.127 110.035932 
L 197.5455 104.329107 
L 197.6292 104.096853 
L 197.7129 104.2537 
L 197.8803 105.541657 
L 198.2988 109.514114 
L 198.3825 109.456804 
L 198.5499 107.625915 
L 198.801 100.281243 
L 199.3032 83.558917 
L 199.4706 82.738486 
L 199.638 84.45174 
L 200.5587 99.895157 
L 200.8098 100.468253 
L 200.9772 100.652247 
L 201.1446 101.78034 
L 201.3957 106.537033 
L 201.8979 117.655087 
L 202.5675 122.81898 
L 202.6512 122.758654 
L 202.8186 121.090644 
L 203.0697 117.781772 
L 203.1534 117.733511 
L 203.3208 120.291327 
L 203.823 133.237254 
L 203.9067 133.653503 
L 203.9904 133.578095 
L 204.3252 132.32935 
L 204.4926 133.240271 
L 204.9948 137.330363 
L 205.2459 138.199055 
L 205.497 140.55478 
L 205.8318 143.743001 
L 205.9992 144.029549 
L 206.1666 144.18338 
L 206.334 145.121447 
L 207.0873 151.754274 
L 207.3384 154.266845 
L 207.6732 157.913543 
L 207.7569 158.100553 
L 207.8406 157.910527 
L 208.2591 155.669421 
L 208.3428 155.714666 
L 208.5939 156.290778 
L 208.6776 156.200289 
L 208.845 154.842957 
L 209.1798 147.739588 
L 209.682 134.175321 
L 210.2679 114.234612 
L 210.3516 113.932982 
L 210.519 115.769904 
L 211.0212 124.462859 
L 211.1049 124.839896 
L 211.1886 124.794652 
L 211.356 123.485581 
L 212.0256 114.898196 
L 212.1093 115.260151 
L 212.2767 117.495224 
L 212.8626 127.249914 
L 213.03 125.412992 
L 213.867 109.43569 
L 213.9507 109.496016 
L 214.1181 111.320873 
L 214.704 122.405748 
L 214.7877 122.113168 
L 214.9551 119.102908 
L 215.2899 105.592934 
L 215.6247 93.527764 
L 215.7921 92.098041 
L 215.8758 92.565566 
L 216.1269 97.599759 
L 216.7965 113.57706 
L 217.0476 114.973603 
L 217.215 115.266184 
L 217.3824 116.370147 
L 217.5498 119.395488 
L 217.8846 132.244894 
L 218.2194 144.120037 
L 218.3031 145.097316 
L 218.3868 145.049056 
L 218.5542 142.044828 
L 218.889 128.263388 
L 219.3075 113.531815 
L 219.3912 112.985867 
L 219.4749 113.55293 
L 219.6423 117.935602 
L 220.4793 150.43917 
L 220.7304 153.190029 
L 220.8978 153.732962 
L 221.0652 153.784239 
L 221.1489 153.938069 
L 221.3163 155.177766 
L 221.5674 161.086683 
L 222.3207 186.30892 
L 222.4044 186.625631 
L 222.4881 186.317969 
L 222.7392 182.807005 
L 223.074 178.888841 
L 223.1577 179.00346 
L 223.3251 180.819268 
L 223.9947 193.044301 
L 224.0784 193.071448 
L 224.2458 192.220854 
L 224.6643 189.620809 
L 224.748 189.687168 
L 224.9154 190.36885 
L 225.1665 192.646151 
L 225.585 197.001677 
L 225.6687 196.700048 
L 225.8361 193.77726 
L 226.422 176.140998 
L 226.5057 176.331025 
L 226.8405 179.760549 
L 227.0079 182.448066 
L 227.5101 196.368256 
L 227.5938 196.280783 
L 227.8449 195.366847 
L 227.9286 195.55084 
L 228.0123 195.412091 
L 228.1797 192.130365 
L 228.6819 172.521447 
L 228.7656 174.011496 
L 229.1004 189.141219 
L 229.1841 188.628449 
L 229.3515 177.745666 
L 229.6863 149.751456 
L 229.77 148.068364 
L 229.8537 149.099936 
L 230.0211 158.287563 
L 230.3559 183.027194 
L 230.4396 182.63206 
L 230.607 168.910945 
L 230.9418 138.069355 
L 231.0255 139.836902 
L 231.2766 152.493265 
L 231.3603 151.506938 
L 231.6114 130.172701 
L 231.7788 119.636791 
L 231.8625 119.495026 
L 232.0299 126.893991 
L 232.281 139.019487 
L 232.3647 140.201874 
L 232.4484 139.836902 
L 232.7832 134.932411 
L 232.9506 140.216955 
L 233.3691 162.232874 
L 233.5365 152.656145 
L 233.8713 126.924154 
L 233.955 128.836483 
L 234.1224 145.456255 
L 234.4572 185.946965 
L 234.5409 186.197317 
L 234.7083 169.882191 
L 235.1268 108.847513 
L 235.2942 104.123999 
L 235.4616 107.82499 
L 235.7127 121.229394 
L 236.2149 160.981112 
L 236.2986 158.730958 
L 236.5497 131.409381 
L 236.8008 107.601784 
L 236.8845 105.559754 
L 236.9682 106.42543 
L 237.1356 115.504471 
L 237.7215 170.419092 
L 237.8052 170.042055 
L 238.0563 154.333204 
L 238.3074 141.700971 
L 238.7259 128.242274 
L 238.8933 124.493022 
L 238.977 125.035955 
L 239.1444 132.839104 
L 239.6466 174.578559 
L 239.7303 174.400598 
L 239.8977 166.365194 
L 240.2325 150.363763 
L 240.3162 151.470742 
L 240.7347 168.156872 
L 240.8184 167.749673 
L 240.9858 161.273693 
L 241.3206 148.385075 
L 241.488 154.577523 
L 241.7391 168.530892 
L 241.8228 168.316736 
L 241.9902 155.931839 
L 242.4087 116.931177 
L 242.4924 118.469486 
L 243.6642 174.56951 
L 243.8316 168.099563 
L 244.3338 138.205088 
L 244.5012 143.896832 
L 244.9197 164.667022 
L 245.0034 164.093926 
L 245.3382 151.724111 
L 245.7567 136.871887 
L 246.1752 112.159402 
L 246.2589 113.51975 
L 246.4263 125.467285 
L 246.8448 163.526863 
L 246.9285 165.267264 
L 247.0122 164.62781 
L 247.2633 154.613719 
L 248.184 115.338575 
L 248.2677 114.303986 
L 248.3514 114.668958 
L 248.8536 122.28208 
L 249.021 120.556761 
L 249.3558 117.097073 
L 249.4395 117.244872 
L 249.6069 118.903832 
L 249.9417 126.100706 
L 250.6113 143.260394 
L 250.695 142.985911 
L 250.8624 140.108368 
L 251.7831 117.597778 
L 252.0342 116.152974 
L 252.1179 116.207267 
L 252.2853 117.326311 
L 252.5364 118.849539 
L 252.7875 118.535845 
L 252.8712 118.716822 
L 253.0386 120.016844 
L 253.3734 125.361715 
L 253.8756 137.954736 
L 253.9593 137.396722 
L 254.1267 132.069949 
L 254.6289 110.925739 
L 254.7126 110.539653 
L 254.88 112.331331 
L 255.5496 126.36614 
L 256.2192 149.395533 
L 256.3029 149.299012 
L 256.6377 142.798901 
L 256.7214 144.165282 
L 257.1399 164.259822 
L 257.3073 155.207929 
L 257.5584 143.987321 
L 257.8932 158.474573 
L 257.9769 156.242517 
L 258.3954 124.692098 
L 258.4791 125.177721 
L 258.8976 136.995555 
L 259.065 133.451411 
L 259.2324 129.798681 
L 259.3161 130.169685 
L 259.4835 138.036176 
L 259.9857 176.518035 
L 260.1531 166.003239 
L 260.4042 146.415436 
L 260.4879 147.009646 
L 260.6553 161.318937 
L 260.9064 187.069026 
L 260.9901 188.179022 
L 261.1575 175.444235 
L 261.4923 142.156431 
L 261.576 145.181772 
L 261.9945 187.982963 
L 262.1619 171.049497 
L 262.4967 125.961957 
L 262.5804 127.482168 
L 262.8315 156.082653 
L 262.9989 170.352733 
L 263.0826 169.701214 
L 263.25 152.363565 
L 263.5848 113.142714 
L 263.6685 114.119993 
L 263.8359 128.715832 
L 264.1707 161.035406 
L 264.2544 162.646106 
L 264.3381 161.898065 
L 264.5892 156.842759 
L 264.6729 156.872922 
L 264.8403 157.63906 
L 264.924 156.393332 
L 265.0914 147.944696 
L 265.4262 128.634392 
L 265.5099 129.852974 
L 265.9284 152.984921 
L 266.0121 151.030364 
L 266.4306 120.982058 
L 266.5143 121.93219 
L 266.7654 142.424881 
L 266.9328 150.719685 
L 267.0165 147.938664 
L 267.435 114.548306 
L 267.6024 126.103723 
L 267.9372 154.197471 
L 268.0209 150.849386 
L 268.4394 112.500243 
L 268.5231 114.346214 
L 268.9416 141.191217 
L 269.0253 139.824837 
L 269.3601 128.649473 
L 269.4438 129.632785 
L 269.946 143.619333 
L 270.0297 143.314687 
L 270.1971 142.081024 
L 270.2808 142.473142 
L 270.4482 148.888796 
L 270.783 174.460923 
L 270.8667 173.239325 
L 271.0341 150.936858 
L 271.3689 88.532783 
L 271.4526 88.988244 
L 271.62 113.474506 
L 271.9548 164.323164 
L 272.0385 164.980716 
L 272.5407 145.649298 
L 272.7081 134.793661 
L 273.1266 94.68602 
L 273.2103 95.983026 
L 273.3777 116.282674 
L 273.7962 186.12191 
L 273.8799 186.17922 
L 274.131 165.113433 
L 274.3821 149.486022 
L 274.4658 148.593199 
L 274.7169 150.786044 
L 274.8006 149.965612 
L 274.968 141.4657 
L 275.3028 122.79485 
L 275.4702 139.025519 
L 275.8887 202.729617 
L 275.9724 199.348353 
L 276.7257 130.145554 
L 277.0605 117.727478 
L 277.1442 118.134678 
L 277.3116 126.161032 
L 277.5627 161.128911 
L 277.8975 204.198551 
L 277.9812 203.480673 
L 278.1486 188.848639 
L 278.4834 157.334415 
L 278.8182 146.566251 
L 279.2367 100.579856 
L 279.3204 102.139279 
L 279.4878 127.442956 
L 279.9063 206.041506 
L 279.99 205.293465 
L 280.1574 188.942144 
L 280.4922 154.300025 
L 280.6596 151.229439 
L 280.7433 150.873516 
L 280.827 149.582543 
L 280.9944 139.933424 
L 281.4966 79.589476 
L 281.5803 80.253061 
L 281.7477 95.364686 
L 282.501 199.272945 
L 282.5847 201.990625 
L 282.6684 201.040493 
L 282.8358 186.806609 
L 283.5054 95.65425 
L 283.6728 94.185316 
L 283.7565 93.910833 
L 283.9239 89.371313 
L 284.175 82.70229 
L 284.3424 92.734479 
L 284.9283 164.823869 
L 285.012 163.870721 
L 285.5142 140.075189 
L 285.5979 140.162662 
L 285.6816 140.177743 
L 285.7653 139.07378 
L 285.9327 131.457642 
L 286.3512 108.660503 
L 286.4349 109.221534 
L 286.9371 119.9716 
L 287.1882 118.321688 
L 287.2719 118.798262 
L 287.4393 122.333357 
L 287.8578 132.184568 
L 288.0252 132.540491 
L 288.1089 132.486197 
L 288.1926 132.676224 
L 288.36 134.392494 
L 288.7785 140.222988 
L 288.9459 138.256365 
L 289.197 134.166272 
L 289.2807 134.283908 
L 289.4481 137.849165 
L 289.9503 154.622768 
L 290.034 154.351302 
L 290.2014 150.261209 
L 290.9547 123.271424 
L 291.0384 123.452401 
L 291.2895 125.989103 
L 291.7917 132.235845 
L 292.3776 146.216361 
L 292.545 143.335801 
L 292.9635 133.698747 
L 293.0472 133.909887 
L 293.2146 136.401345 
L 293.6331 144.243705 
L 293.7168 144.509139 
L 293.8005 144.107972 
L 293.9679 141.11581 
L 294.5538 124.655902 
L 294.7212 129.690094 
L 295.1397 147.652116 
L 295.2234 146.587365 
L 295.6419 130.139522 
L 295.7256 130.646259 
L 295.893 138.790249 
L 296.3115 163.885802 
L 296.3952 162.546568 
L 296.6463 146.744212 
L 296.9811 128.537871 
L 297.0648 128.00097 
L 297.2322 131.104735 
L 297.7344 146.177149 
L 297.8181 146.11079 
L 297.9855 142.804934 
L 298.6551 121.699935 
L 298.8225 125.183753 
L 299.3247 147.670214 
L 299.9943 177.510395 
L 300.1617 178.370038 
L 300.3291 175.908744 
L 300.6639 163.653548 
L 300.9987 153.959184 
L 301.1661 153.006035 
L 301.3335 155.521623 
L 301.5846 165.644301 
L 302.0031 181.899101 
L 302.0868 182.291219 
L 302.2542 181.057555 
L 302.8401 173.423319 
L 303.2586 164.847999 
L 303.3423 164.555419 
L 303.5097 166.096744 
L 304.0119 173.483645 
L 304.1793 174.05674 
L 304.263 173.954186 
L 304.4304 172.925631 
L 305.0163 166.187233 
L 305.1 166.259624 
L 305.2674 167.683314 
L 305.6859 173.010087 
L 305.7696 172.847207 
L 305.937 169.915371 
L 306.5229 153.817418 
L 306.6066 154.004428 
L 306.8577 156.906101 
L 307.3599 162.989963 
L 307.4436 163.403195 
L 307.5273 163.348902 
L 307.6947 161.735186 
L 308.1132 152.64408 
L 308.3643 148.831486 
L 308.448 148.445401 
L 308.5317 148.529857 
L 308.6991 149.769553 
L 309.2013 154.658963 
L 309.3687 154.855022 
L 309.4524 154.861055 
L 309.5361 154.746436 
L 309.7035 153.729945 
L 309.8709 150.798109 
L 310.2894 136.253547 
L 310.5405 130.501477 
L 310.6242 130.118408 
L 310.7079 130.480363 
L 310.959 134.513146 
L 311.5449 145.836308 
L 311.6286 146.312882 
L 311.7123 146.258589 
L 311.8797 145.000795 
L 312.2145 142.467109 
L 312.2982 142.521402 
L 312.633 143.562023 
L 312.7167 143.42629 
L 312.8841 142.114203 
L 313.8885 128.145753 
L 314.2233 123.14474 
L 314.3907 122.505286 
L 314.5581 122.891371 
L 315.0603 124.83688 
L 315.144 124.891173 
L 315.2277 124.797668 
L 315.4788 123.591151 
L 315.5625 123.271424 
L 315.6462 123.349847 
L 315.8136 125.280275 
L 316.4832 139.07378 
L 316.6506 137.628976 
L 317.0691 132.694322 
L 317.1528 132.643045 
L 317.3202 133.650486 
L 317.5713 135.182763 
L 317.655 134.784612 
L 317.9061 130.969002 
L 318.1572 127.850156 
L 318.2409 127.632983 
L 318.492 127.87127 
L 318.6594 126.571248 
L 319.1616 119.130054 
L 319.2453 119.283885 
L 319.4127 121.356078 
L 320.0823 133.493639 
L 320.2497 133.970213 
L 320.3334 133.725894 
L 320.5008 132.003591 
L 320.9193 125.838289 
L 321.003 125.844321 
L 321.1704 127.985889 
L 321.5052 134.075784 
L 321.5889 134.292957 
L 321.7563 132.845136 
L 322.0074 130.860416 
L 322.0911 131.228403 
L 322.4259 134.718254 
L 322.5096 134.627765 
L 322.677 132.425872 
L 323.0118 126.637606 
L 323.0955 126.426466 
L 323.2629 128.022085 
L 323.7651 134.983688 
L 324.1836 137.94267 
L 324.5184 139.677039 
L 324.8532 140.844344 
L 325.1043 141.83972 
L 325.188 141.800509 
L 325.3554 140.654317 
L 325.8576 134.401543 
L 325.9413 134.519179 
L 326.1087 136.141944 
L 326.4435 140.153613 
L 326.5272 139.966603 
L 326.7783 136.33197 
L 326.9457 134.24168 
L 327.0294 134.298989 
L 327.1968 136.935229 
L 327.5316 143.435339 
L 327.6153 143.474551 
L 327.7827 141.390293 
L 328.1175 135.816184 
L 328.2012 135.451213 
L 328.2849 135.511539 
L 328.7034 136.905066 
L 329.0382 136.896017 
L 329.373 137.294168 
L 329.5404 136.995555 
L 329.7078 136.639632 
L 329.7915 136.712023 
L 329.9589 137.785823 
L 330.3774 141.167087 
L 330.4611 140.9288 
L 330.8796 137.092076 
L 330.9633 137.345445 
L 331.1307 139.827853 
L 331.4655 144.753459 
L 331.5492 144.325145 
L 332.3025 136.072569 
L 332.8884 135.010834 
L 333.0558 135.614093 
L 333.7254 140.90467 
L 333.9765 145.772966 
L 334.3113 152.197669 
L 334.395 152.206718 
L 334.5624 149.890205 
L 334.8972 144.165282 
L 334.9809 144.39452 
L 335.1483 147.139346 
L 335.4831 152.957774 
L 335.5668 153.051279 
L 335.9016 151.727127 
L 336.069 152.348483 
L 336.2364 152.978888 
L 336.3201 152.674243 
L 336.4875 150.152622 
L 337.0734 137.677237 
L 337.1571 138.05729 
L 337.4082 142.252952 
L 337.8267 154.815811 
L 338.2452 166.009272 
L 338.3289 165.912751 
L 338.4963 162.498307 
L 339.1659 140.648285 
L 339.2496 140.443177 
L 339.417 141.100729 
L 339.6681 143.746017 
L 340.0029 151.32596 
L 340.3377 156.957378 
L 340.4214 156.839743 
L 340.5888 155.014886 
L 341.1747 146.41242 
L 341.3421 145.866471 
L 341.4258 145.962992 
L 341.5932 146.665788 
L 341.8443 148.798307 
L 342.4302 155.67847 
L 342.5976 154.037607 
L 343.4346 140.268232 
L 343.602 139.861032 
L 343.6857 139.987717 
L 343.8531 141.456651 
L 344.1042 147.259998 
L 344.6064 159.916361 
L 344.6901 160.411033 
L 344.7738 160.38087 
L 344.9412 159.107995 
L 345.3597 152.906497 
L 346.1967 139.09791 
L 346.3641 138.548945 
L 346.4478 138.585141 
L 346.6152 139.122041 
L 346.8663 140.983093 
L 347.5359 147.59179 
L 347.7033 146.62356 
L 348.1218 141.076598 
L 348.4566 138.048241 
L 348.5403 137.978866 
L 348.7077 138.86264 
L 348.9588 142.648087 
L 349.3773 149.021513 
L 349.461 149.308061 
L 349.5447 149.190425 
L 349.7958 147.365568 
L 350.7165 138.307642 
L 350.9676 135.918738 
L 351.0513 135.903657 
L 351.2187 137.073978 
L 352.3905 149.724309 
L 352.4742 149.857026 
L 352.5579 149.700179 
L 352.809 147.923582 
L 353.1438 145.709624 
L 353.7297 143.429306 
L 353.8971 144.228624 
L 354.2319 148.47858 
L 354.6504 153.434349 
L 354.9015 154.339236 
L 355.0689 154.520214 
L 355.1526 154.450839 
L 355.32 153.542935 
L 355.8222 147.769751 
L 355.9059 147.88437 
L 356.0733 149.600641 
L 356.4918 155.210945 
L 356.5755 155.419069 
L 356.6592 155.30445 
L 356.9103 154.39353 
L 356.994 154.456872 
L 357.1614 155.566867 
L 357.5799 159.370412 
L 357.6636 159.472966 
L 357.831 158.990359 
L 358.7517 154.761517 
L 358.8354 154.737387 
L 359.0028 155.334613 
L 359.3376 158.791284 
L 359.7561 162.453063 
L 360.0072 163.412244 
L 360.0909 163.192055 
L 360.2583 161.415458 
L 361.0953 147.688311 
L 361.2627 147.808963 
L 361.6812 148.424287 
L 361.8486 148.089478 
L 362.5182 145.359734 
L 363.1041 141.529042 
L 363.2715 142.563631 
L 363.9411 149.145181 
L 364.0248 148.976268 
L 364.1922 147.772768 
L 365.1129 138.361935 
L 365.4477 136.579306 
L 365.6151 136.55216 
L 365.8662 136.696942 
L 366.2847 136.398329 
L 366.5358 137.095092 
L 366.7869 137.692318 
L 366.9543 137.604846 
L 367.2054 136.799496 
L 367.6239 135.300398 
L 367.7913 135.212926 
L 368.1261 135.25817 
L 368.5446 134.902248 
L 368.712 135.188795 
L 369.1305 136.141944 
L 369.2979 136.069553 
L 369.8838 135.402952 
L 370.4697 133.195026 
L 370.8045 133.336792 
L 371.223 132.389676 
L 371.3067 132.483181 
L 371.6415 133.357906 
L 371.7252 133.204075 
L 371.8926 132.08503 
L 372.3111 128.16385 
L 372.3948 128.003987 
L 372.4785 128.175915 
L 372.6459 129.3764 
L 373.3155 135.535669 
L 373.4829 135.755858 
L 373.734 135.602028 
L 373.9851 135.170698 
L 374.7384 132.778778 
L 374.9895 130.269222 
L 375.3243 127.258963 
L 375.408 127.424859 
L 375.6591 129.771534 
L 375.9939 132.727501 
L 376.245 133.520786 
L 376.5798 133.873692 
L 376.8309 134.205484 
L 377.082 135.360724 
L 377.5005 139.468914 
L 377.7516 141.136924 
L 377.8353 141.215348 
L 378.0027 140.817197 
L 378.2538 140.090271 
L 378.3375 140.12345 
L 378.5049 140.729725 
L 378.8397 142.231838 
L 378.9234 142.243904 
L 379.1745 141.894014 
L 379.2582 141.996568 
L 379.4256 142.895423 
L 379.7604 145.049056 
L 379.8441 145.027941 
L 380.0115 144.310064 
L 380.43 142.286132 
L 381.4344 139.532257 
L 381.5181 139.598615 
L 381.7692 139.812772 
L 381.9366 139.26079 
L 382.5225 135.897624 
L 383.1084 136.217351 
L 383.2758 136.983489 
L 383.6106 140.835295 
L 383.9454 143.673626 
L 384.3639 144.80172 
L 384.7824 146.701984 
L 384.9498 145.987122 
L 385.6194 140.382851 
L 385.7031 140.437144 
L 385.9542 141.396325 
L 386.289 143.688708 
L 386.7075 147.166493 
L 386.7912 147.317307 
L 386.8749 147.154428 
L 387.0423 145.950927 
L 387.7956 138.72389 
L 388.1304 137.91854 
L 388.2141 137.933622 
L 388.3815 138.479571 
L 388.7163 141.468716 
L 388.8837 142.88939 
L 388.8837 142.88939 
" style="fill:none;stroke:#1f77b4;stroke-linecap:square;stroke-width:1.5;"/>
   </g>
   <g id="patch_3">
    <path d="M 54 252 
L 54 34.56 
" style="fill:none;stroke:#000000;stroke-linecap:square;stroke-linejoin:miter;stroke-width:0.8;"/>
   </g>
   <g id="patch_4">
    <path d="M 388.8 252 
L 388.8 34.56 
" style="fill:none;stroke:#000000;stroke-linecap:square;stroke-linejoin:miter;stroke-width:0.8;"/>
   </g>
   <g id="patch_5">
    <path d="M 54 252 
L 388.8 252 
" style="fill:none;stroke:#000000;stroke-linecap:square;stroke-linejoin:miter;stroke-width:0.8;"/>
   </g>
   <g id="patch_6">
    <path d="M 54 34.56 
L 388.8 34.56 
" style="fill:none;stroke:#000000;stroke-linecap:square;stroke-linejoin:miter;stroke-width:0.8;"/>
   </g>
   <g id="legend_1">
    <g id="patch_7">
     <path d="M 320.326563 57.238125 
L 381.8 57.238125 
Q 383.8 57.238125 383.8 55.238125 
L 383.8 41.56 
Q 383.8 39.56 381.8 39.56 
L 320.326563 39.56 
Q 318.326563 39.56 318.326563 41.56 
L 318.326563 55.238125 
Q 318.326563 57.238125 320.326563 57.238125 
z
" style="fill:#ffffff;opacity:0.8;stroke:#cccccc;stroke-linejoin:miter;"/>
    </g>
    <g id="line2d_34">
     <path d="M 322.326563 47.658437 
L 342.326563 47.658437 
" style="fill:none;stroke:#1f77b4;stroke-linecap:square;stroke-width:1.5;"/>
    </g>
    <g id="line2d_35"/>
    <g id="text_17">
     <!-- dataR -->
     <defs>
      <path d="M 45.40625 46.390625 
L 45.40625 75.984375 
L 54.390625 75.984375 
L 54.390625 0 
L 45.40625 0 
L 45.40625 8.203125 
Q 42.578125 3.328125 38.25 0.953125 
Q 33.9375 -1.421875 27.875 -1.421875 
Q 17.96875 -1.421875 11.734375 6.484375 
Q 5.515625 14.40625 5.515625 27.296875 
Q 5.515625 40.1875 11.734375 48.09375 
Q 17.96875 56 27.875 56 
Q 33.9375 56 38.25 53.625 
Q 42.578125 51.265625 45.40625 46.390625 
z
M 14.796875 27.296875 
Q 14.796875 17.390625 18.875 11.75 
Q 22.953125 6.109375 30.078125 6.109375 
Q 37.203125 6.109375 41.296875 11.75 
Q 45.40625 17.390625 45.40625 27.296875 
Q 45.40625 37.203125 41.296875 42.84375 
Q 37.203125 48.484375 30.078125 48.484375 
Q 22.953125 48.484375 18.875 42.84375 
Q 14.796875 37.203125 14.796875 27.296875 
z
" id="DejaVuSans-100"/>
      <path d="M 34.28125 27.484375 
Q 23.390625 27.484375 19.1875 25 
Q 14.984375 22.515625 14.984375 16.5 
Q 14.984375 11.71875 18.140625 8.90625 
Q 21.296875 6.109375 26.703125 6.109375 
Q 34.1875 6.109375 38.703125 11.40625 
Q 43.21875 16.703125 43.21875 25.484375 
L 43.21875 27.484375 
z
M 52.203125 31.203125 
L 52.203125 0 
L 43.21875 0 
L 43.21875 8.296875 
Q 40.140625 3.328125 35.546875 0.953125 
Q 30.953125 -1.421875 24.3125 -1.421875 
Q 15.921875 -1.421875 10.953125 3.296875 
Q 6 8.015625 6 15.921875 
Q 6 25.140625 12.171875 29.828125 
Q 18.359375 34.515625 30.609375 34.515625 
L 43.21875 34.515625 
L 43.21875 35.40625 
Q 43.21875 41.609375 39.140625 45 
Q 35.0625 48.390625 27.6875 48.390625 
Q 23 48.390625 18.546875 47.265625 
Q 14.109375 46.140625 10.015625 43.890625 
L 10.015625 52.203125 
Q 14.9375 54.109375 19.578125 55.046875 
Q 24.21875 56 28.609375 56 
Q 40.484375 56 46.34375 49.84375 
Q 52.203125 43.703125 52.203125 31.203125 
z
" id="DejaVuSans-97"/>
      <path d="M 18.3125 70.21875 
L 18.3125 54.6875 
L 36.8125 54.6875 
L 36.8125 47.703125 
L 18.3125 47.703125 
L 18.3125 18.015625 
Q 18.3125 11.328125 20.140625 9.421875 
Q 21.96875 7.515625 27.59375 7.515625 
L 36.8125 7.515625 
L 36.8125 0 
L 27.59375 0 
Q 17.1875 0 13.234375 3.875 
Q 9.28125 7.765625 9.28125 18.015625 
L 9.28125 47.703125 
L 2.6875 47.703125 
L 2.6875 54.6875 
L 9.28125 54.6875 
L 9.28125 70.21875 
z
" id="DejaVuSans-116"/>
      <path d="M 44.390625 34.1875 
Q 47.5625 33.109375 50.5625 29.59375 
Q 53.5625 26.078125 56.59375 19.921875 
L 66.609375 0 
L 56 0 
L 46.6875 18.703125 
Q 43.0625 26.03125 39.671875 28.421875 
Q 36.28125 30.8125 30.421875 30.8125 
L 19.671875 30.8125 
L 19.671875 0 
L 9.8125 0 
L 9.8125 72.90625 
L 32.078125 72.90625 
Q 44.578125 72.90625 50.734375 67.671875 
Q 56.890625 62.453125 56.890625 51.90625 
Q 56.890625 45.015625 53.6875 40.46875 
Q 50.484375 35.9375 44.390625 34.1875 
z
M 19.671875 64.796875 
L 19.671875 38.921875 
L 32.078125 38.921875 
Q 39.203125 38.921875 42.84375 42.21875 
Q 46.484375 45.515625 46.484375 51.90625 
Q 46.484375 58.296875 42.84375 61.546875 
Q 39.203125 64.796875 32.078125 64.796875 
z
" id="DejaVuSans-82"/>
     </defs>
     <g transform="translate(350.326563 51.158437)scale(0.1 -0.1)">
      <use xlink:href="#DejaVuSans-100"/>
      <use x="63.476562" xlink:href="#DejaVuSans-97"/>
      <use x="124.755859" xlink:href="#DejaVuSans-116"/>
      <use x="163.964844" xlink:href="#DejaVuSans-97"/>
      <use x="225.244141" xlink:href="#DejaVuSans-82"/>
     </g>
    </g>
   </g>
  </g>
 </g>
 <defs>
  <clipPath id="p9adb1a2b3c">
   <rect height="217.44" width="334.8" x="54" y="34.56"/>
  </clipPath>
 </defs>
</svg>
