<?xml version="1.0" encoding="utf-8" standalone="no"?>
<!DOCTYPE svg PUBLIC "-//W3C//DTD SVG 1.1//EN"
  "http://www.w3.org/Graphics/SVG/1.1/DTD/svg11.dtd">
<!-- Created with matplotlib (https://matplotlib.org/) -->
<svg height="288pt" version="1.1" viewBox="0 0 432 288" width="432pt" xmlns="http://www.w3.org/2000/svg" xmlns:xlink="http://www.w3.org/1999/xlink">
 <defs>
  <style type="text/css">
*{stroke-linecap:butt;stroke-linejoin:round;}
  </style>
 </defs>
 <g id="figure_1">
  <g id="patch_1">
   <path d="M 0 288 
L 432 288 
L 432 0 
L 0 0 
z
" style="fill:#ffffff;"/>
  </g>
  <g id="axes_1">
   <g id="patch_2">
    <path d="M 54 252 
L 388.8 252 
L 388.8 34.56 
L 54 34.56 
z
" style="fill:#ffffff;"/>
   </g>
   <g id="matplotlib.axis_1">
    <g id="xtick_1">
     <g id="line2d_1">
      <path clip-path="url(#p98be932d3f)" d="M 54 252 
L 54 34.56 
" style="fill:none;stroke:#b0b0b0;stroke-linecap:square;stroke-width:0.8;"/>
     </g>
     <g id="line2d_2">
      <defs>
       <path d="M 0 0 
L 0 3.5 
" id="m87b00772c3" style="stroke:#000000;stroke-width:0.8;"/>
      </defs>
      <g>
       <use style="stroke:#000000;stroke-width:0.8;" x="54" xlink:href="#m87b00772c3" y="252"/>
      </g>
     </g>
     <g id="text_1">
      <!-- 0 -->
      <defs>
       <path d="M 31.78125 66.40625 
Q 24.171875 66.40625 20.328125 58.90625 
Q 16.5 51.421875 16.5 36.375 
Q 16.5 21.390625 20.328125 13.890625 
Q 24.171875 6.390625 31.78125 6.390625 
Q 39.453125 6.390625 43.28125 13.890625 
Q 47.125 21.390625 47.125 36.375 
Q 47.125 51.421875 43.28125 58.90625 
Q 39.453125 66.40625 31.78125 66.40625 
z
M 31.78125 74.21875 
Q 44.046875 74.21875 50.515625 64.515625 
Q 56.984375 54.828125 56.984375 36.375 
Q 56.984375 17.96875 50.515625 8.265625 
Q 44.046875 -1.421875 31.78125 -1.421875 
Q 19.53125 -1.421875 13.0625 8.265625 
Q 6.59375 17.96875 6.59375 36.375 
Q 6.59375 54.828125 13.0625 64.515625 
Q 19.53125 74.21875 31.78125 74.21875 
z
" id="DejaVuSans-48"/>
      </defs>
      <g transform="translate(50.81875 266.598437)scale(0.1 -0.1)">
       <use xlink:href="#DejaVuSans-48"/>
      </g>
     </g>
    </g>
    <g id="xtick_2">
     <g id="line2d_3">
      <path clip-path="url(#p98be932d3f)" d="M 91.2 252 
L 91.2 34.56 
" style="fill:none;stroke:#b0b0b0;stroke-linecap:square;stroke-width:0.8;"/>
     </g>
     <g id="line2d_4">
      <g>
       <use style="stroke:#000000;stroke-width:0.8;" x="91.2" xlink:href="#m87b00772c3" y="252"/>
      </g>
     </g>
     <g id="text_2">
      <!-- 2000 -->
      <defs>
       <path d="M 19.1875 8.296875 
L 53.609375 8.296875 
L 53.609375 0 
L 7.328125 0 
L 7.328125 8.296875 
Q 12.9375 14.109375 22.625 23.890625 
Q 32.328125 33.6875 34.8125 36.53125 
Q 39.546875 41.84375 41.421875 45.53125 
Q 43.3125 49.21875 43.3125 52.78125 
Q 43.3125 58.59375 39.234375 62.25 
Q 35.15625 65.921875 28.609375 65.921875 
Q 23.96875 65.921875 18.8125 64.3125 
Q 13.671875 62.703125 7.8125 59.421875 
L 7.8125 69.390625 
Q 13.765625 71.78125 18.9375 73 
Q 24.125 74.21875 28.421875 74.21875 
Q 39.75 74.21875 46.484375 68.546875 
Q 53.21875 62.890625 53.21875 53.421875 
Q 53.21875 48.921875 51.53125 44.890625 
Q 49.859375 40.875 45.40625 35.40625 
Q 44.1875 33.984375 37.640625 27.21875 
Q 31.109375 20.453125 19.1875 8.296875 
z
" id="DejaVuSans-50"/>
      </defs>
      <g transform="translate(78.475 266.598437)scale(0.1 -0.1)">
       <use xlink:href="#DejaVuSans-50"/>
       <use x="63.623047" xlink:href="#DejaVuSans-48"/>
       <use x="127.246094" xlink:href="#DejaVuSans-48"/>
       <use x="190.869141" xlink:href="#DejaVuSans-48"/>
      </g>
     </g>
    </g>
    <g id="xtick_3">
     <g id="line2d_5">
      <path clip-path="url(#p98be932d3f)" d="M 128.4 252 
L 128.4 34.56 
" style="fill:none;stroke:#b0b0b0;stroke-linecap:square;stroke-width:0.8;"/>
     </g>
     <g id="line2d_6">
      <g>
       <use style="stroke:#000000;stroke-width:0.8;" x="128.4" xlink:href="#m87b00772c3" y="252"/>
      </g>
     </g>
     <g id="text_3">
      <!-- 4000 -->
      <defs>
       <path d="M 37.796875 64.3125 
L 12.890625 25.390625 
L 37.796875 25.390625 
z
M 35.203125 72.90625 
L 47.609375 72.90625 
L 47.609375 25.390625 
L 58.015625 25.390625 
L 58.015625 17.1875 
L 47.609375 17.1875 
L 47.609375 0 
L 37.796875 0 
L 37.796875 17.1875 
L 4.890625 17.1875 
L 4.890625 26.703125 
z
" id="DejaVuSans-52"/>
      </defs>
      <g transform="translate(115.675 266.598437)scale(0.1 -0.1)">
       <use xlink:href="#DejaVuSans-52"/>
       <use x="63.623047" xlink:href="#DejaVuSans-48"/>
       <use x="127.246094" xlink:href="#DejaVuSans-48"/>
       <use x="190.869141" xlink:href="#DejaVuSans-48"/>
      </g>
     </g>
    </g>
    <g id="xtick_4">
     <g id="line2d_7">
      <path clip-path="url(#p98be932d3f)" d="M 165.6 252 
L 165.6 34.56 
" style="fill:none;stroke:#b0b0b0;stroke-linecap:square;stroke-width:0.8;"/>
     </g>
     <g id="line2d_8">
      <g>
       <use style="stroke:#000000;stroke-width:0.8;" x="165.6" xlink:href="#m87b00772c3" y="252"/>
      </g>
     </g>
     <g id="text_4">
      <!-- 6000 -->
      <defs>
       <path d="M 33.015625 40.375 
Q 26.375 40.375 22.484375 35.828125 
Q 18.609375 31.296875 18.609375 23.390625 
Q 18.609375 15.53125 22.484375 10.953125 
Q 26.375 6.390625 33.015625 6.390625 
Q 39.65625 6.390625 43.53125 10.953125 
Q 47.40625 15.53125 47.40625 23.390625 
Q 47.40625 31.296875 43.53125 35.828125 
Q 39.65625 40.375 33.015625 40.375 
z
M 52.59375 71.296875 
L 52.59375 62.3125 
Q 48.875 64.0625 45.09375 64.984375 
Q 41.3125 65.921875 37.59375 65.921875 
Q 27.828125 65.921875 22.671875 59.328125 
Q 17.53125 52.734375 16.796875 39.40625 
Q 19.671875 43.65625 24.015625 45.921875 
Q 28.375 48.1875 33.59375 48.1875 
Q 44.578125 48.1875 50.953125 41.515625 
Q 57.328125 34.859375 57.328125 23.390625 
Q 57.328125 12.15625 50.6875 5.359375 
Q 44.046875 -1.421875 33.015625 -1.421875 
Q 20.359375 -1.421875 13.671875 8.265625 
Q 6.984375 17.96875 6.984375 36.375 
Q 6.984375 53.65625 15.1875 63.9375 
Q 23.390625 74.21875 37.203125 74.21875 
Q 40.921875 74.21875 44.703125 73.484375 
Q 48.484375 72.75 52.59375 71.296875 
z
" id="DejaVuSans-54"/>
      </defs>
      <g transform="translate(152.875 266.598437)scale(0.1 -0.1)">
       <use xlink:href="#DejaVuSans-54"/>
       <use x="63.623047" xlink:href="#DejaVuSans-48"/>
       <use x="127.246094" xlink:href="#DejaVuSans-48"/>
       <use x="190.869141" xlink:href="#DejaVuSans-48"/>
      </g>
     </g>
    </g>
    <g id="xtick_5">
     <g id="line2d_9">
      <path clip-path="url(#p98be932d3f)" d="M 202.8 252 
L 202.8 34.56 
" style="fill:none;stroke:#b0b0b0;stroke-linecap:square;stroke-width:0.8;"/>
     </g>
     <g id="line2d_10">
      <g>
       <use style="stroke:#000000;stroke-width:0.8;" x="202.8" xlink:href="#m87b00772c3" y="252"/>
      </g>
     </g>
     <g id="text_5">
      <!-- 8000 -->
      <defs>
       <path d="M 31.78125 34.625 
Q 24.75 34.625 20.71875 30.859375 
Q 16.703125 27.09375 16.703125 20.515625 
Q 16.703125 13.921875 20.71875 10.15625 
Q 24.75 6.390625 31.78125 6.390625 
Q 38.8125 6.390625 42.859375 10.171875 
Q 46.921875 13.96875 46.921875 20.515625 
Q 46.921875 27.09375 42.890625 30.859375 
Q 38.875 34.625 31.78125 34.625 
z
M 21.921875 38.8125 
Q 15.578125 40.375 12.03125 44.71875 
Q 8.5 49.078125 8.5 55.328125 
Q 8.5 64.0625 14.71875 69.140625 
Q 20.953125 74.21875 31.78125 74.21875 
Q 42.671875 74.21875 48.875 69.140625 
Q 55.078125 64.0625 55.078125 55.328125 
Q 55.078125 49.078125 51.53125 44.71875 
Q 48 40.375 41.703125 38.8125 
Q 48.828125 37.15625 52.796875 32.3125 
Q 56.78125 27.484375 56.78125 20.515625 
Q 56.78125 9.90625 50.3125 4.234375 
Q 43.84375 -1.421875 31.78125 -1.421875 
Q 19.734375 -1.421875 13.25 4.234375 
Q 6.78125 9.90625 6.78125 20.515625 
Q 6.78125 27.484375 10.78125 32.3125 
Q 14.796875 37.15625 21.921875 38.8125 
z
M 18.3125 54.390625 
Q 18.3125 48.734375 21.84375 45.5625 
Q 25.390625 42.390625 31.78125 42.390625 
Q 38.140625 42.390625 41.71875 45.5625 
Q 45.3125 48.734375 45.3125 54.390625 
Q 45.3125 60.0625 41.71875 63.234375 
Q 38.140625 66.40625 31.78125 66.40625 
Q 25.390625 66.40625 21.84375 63.234375 
Q 18.3125 60.0625 18.3125 54.390625 
z
" id="DejaVuSans-56"/>
      </defs>
      <g transform="translate(190.075 266.598437)scale(0.1 -0.1)">
       <use xlink:href="#DejaVuSans-56"/>
       <use x="63.623047" xlink:href="#DejaVuSans-48"/>
       <use x="127.246094" xlink:href="#DejaVuSans-48"/>
       <use x="190.869141" xlink:href="#DejaVuSans-48"/>
      </g>
     </g>
    </g>
    <g id="xtick_6">
     <g id="line2d_11">
      <path clip-path="url(#p98be932d3f)" d="M 240 252 
L 240 34.56 
" style="fill:none;stroke:#b0b0b0;stroke-linecap:square;stroke-width:0.8;"/>
     </g>
     <g id="line2d_12">
      <g>
       <use style="stroke:#000000;stroke-width:0.8;" x="240" xlink:href="#m87b00772c3" y="252"/>
      </g>
     </g>
     <g id="text_6">
      <!-- 10000 -->
      <defs>
       <path d="M 12.40625 8.296875 
L 28.515625 8.296875 
L 28.515625 63.921875 
L 10.984375 60.40625 
L 10.984375 69.390625 
L 28.421875 72.90625 
L 38.28125 72.90625 
L 38.28125 8.296875 
L 54.390625 8.296875 
L 54.390625 0 
L 12.40625 0 
z
" id="DejaVuSans-49"/>
      </defs>
      <g transform="translate(224.09375 266.598437)scale(0.1 -0.1)">
       <use xlink:href="#DejaVuSans-49"/>
       <use x="63.623047" xlink:href="#DejaVuSans-48"/>
       <use x="127.246094" xlink:href="#DejaVuSans-48"/>
       <use x="190.869141" xlink:href="#DejaVuSans-48"/>
       <use x="254.492188" xlink:href="#DejaVuSans-48"/>
      </g>
     </g>
    </g>
    <g id="xtick_7">
     <g id="line2d_13">
      <path clip-path="url(#p98be932d3f)" d="M 277.2 252 
L 277.2 34.56 
" style="fill:none;stroke:#b0b0b0;stroke-linecap:square;stroke-width:0.8;"/>
     </g>
     <g id="line2d_14">
      <g>
       <use style="stroke:#000000;stroke-width:0.8;" x="277.2" xlink:href="#m87b00772c3" y="252"/>
      </g>
     </g>
     <g id="text_7">
      <!-- 12000 -->
      <g transform="translate(261.29375 266.598437)scale(0.1 -0.1)">
       <use xlink:href="#DejaVuSans-49"/>
       <use x="63.623047" xlink:href="#DejaVuSans-50"/>
       <use x="127.246094" xlink:href="#DejaVuSans-48"/>
       <use x="190.869141" xlink:href="#DejaVuSans-48"/>
       <use x="254.492188" xlink:href="#DejaVuSans-48"/>
      </g>
     </g>
    </g>
    <g id="xtick_8">
     <g id="line2d_15">
      <path clip-path="url(#p98be932d3f)" d="M 314.4 252 
L 314.4 34.56 
" style="fill:none;stroke:#b0b0b0;stroke-linecap:square;stroke-width:0.8;"/>
     </g>
     <g id="line2d_16">
      <g>
       <use style="stroke:#000000;stroke-width:0.8;" x="314.4" xlink:href="#m87b00772c3" y="252"/>
      </g>
     </g>
     <g id="text_8">
      <!-- 14000 -->
      <g transform="translate(298.49375 266.598437)scale(0.1 -0.1)">
       <use xlink:href="#DejaVuSans-49"/>
       <use x="63.623047" xlink:href="#DejaVuSans-52"/>
       <use x="127.246094" xlink:href="#DejaVuSans-48"/>
       <use x="190.869141" xlink:href="#DejaVuSans-48"/>
       <use x="254.492188" xlink:href="#DejaVuSans-48"/>
      </g>
     </g>
    </g>
    <g id="xtick_9">
     <g id="line2d_17">
      <path clip-path="url(#p98be932d3f)" d="M 351.6 252 
L 351.6 34.56 
" style="fill:none;stroke:#b0b0b0;stroke-linecap:square;stroke-width:0.8;"/>
     </g>
     <g id="line2d_18">
      <g>
       <use style="stroke:#000000;stroke-width:0.8;" x="351.6" xlink:href="#m87b00772c3" y="252"/>
      </g>
     </g>
     <g id="text_9">
      <!-- 16000 -->
      <g transform="translate(335.69375 266.598437)scale(0.1 -0.1)">
       <use xlink:href="#DejaVuSans-49"/>
       <use x="63.623047" xlink:href="#DejaVuSans-54"/>
       <use x="127.246094" xlink:href="#DejaVuSans-48"/>
       <use x="190.869141" xlink:href="#DejaVuSans-48"/>
       <use x="254.492188" xlink:href="#DejaVuSans-48"/>
      </g>
     </g>
    </g>
    <g id="xtick_10">
     <g id="line2d_19">
      <path clip-path="url(#p98be932d3f)" d="M 388.8 252 
L 388.8 34.56 
" style="fill:none;stroke:#b0b0b0;stroke-linecap:square;stroke-width:0.8;"/>
     </g>
     <g id="line2d_20">
      <g>
       <use style="stroke:#000000;stroke-width:0.8;" x="388.8" xlink:href="#m87b00772c3" y="252"/>
      </g>
     </g>
     <g id="text_10">
      <!-- 18000 -->
      <g transform="translate(372.89375 266.598437)scale(0.1 -0.1)">
       <use xlink:href="#DejaVuSans-49"/>
       <use x="63.623047" xlink:href="#DejaVuSans-56"/>
       <use x="127.246094" xlink:href="#DejaVuSans-48"/>
       <use x="190.869141" xlink:href="#DejaVuSans-48"/>
       <use x="254.492188" xlink:href="#DejaVuSans-48"/>
      </g>
     </g>
    </g>
   </g>
   <g id="matplotlib.axis_2">
    <g id="ytick_1">
     <g id="line2d_21">
      <path clip-path="url(#p98be932d3f)" d="M 54 252 
L 388.8 252 
" style="fill:none;stroke:#b0b0b0;stroke-linecap:square;stroke-width:0.8;"/>
     </g>
     <g id="line2d_22">
      <defs>
       <path d="M 0 0 
L -3.5 0 
" id="m10e7331886" style="stroke:#000000;stroke-width:0.8;"/>
      </defs>
      <g>
       <use style="stroke:#000000;stroke-width:0.8;" x="54" xlink:href="#m10e7331886" y="252"/>
      </g>
     </g>
     <g id="text_11">
      <!-- −40 -->
      <defs>
       <path d="M 10.59375 35.5 
L 73.1875 35.5 
L 73.1875 27.203125 
L 10.59375 27.203125 
z
" id="DejaVuSans-8722"/>
      </defs>
      <g transform="translate(25.895312 255.799219)scale(0.1 -0.1)">
       <use xlink:href="#DejaVuSans-8722"/>
       <use x="83.789062" xlink:href="#DejaVuSans-52"/>
       <use x="147.412109" xlink:href="#DejaVuSans-48"/>
      </g>
     </g>
    </g>
    <g id="ytick_2">
     <g id="line2d_23">
      <path clip-path="url(#p98be932d3f)" d="M 54 208.512 
L 388.8 208.512 
" style="fill:none;stroke:#b0b0b0;stroke-linecap:square;stroke-width:0.8;"/>
     </g>
     <g id="line2d_24">
      <g>
       <use style="stroke:#000000;stroke-width:0.8;" x="54" xlink:href="#m10e7331886" y="208.512"/>
      </g>
     </g>
     <g id="text_12">
      <!-- −30 -->
      <defs>
       <path d="M 40.578125 39.3125 
Q 47.65625 37.796875 51.625 33 
Q 55.609375 28.21875 55.609375 21.1875 
Q 55.609375 10.40625 48.1875 4.484375 
Q 40.765625 -1.421875 27.09375 -1.421875 
Q 22.515625 -1.421875 17.65625 -0.515625 
Q 12.796875 0.390625 7.625 2.203125 
L 7.625 11.71875 
Q 11.71875 9.328125 16.59375 8.109375 
Q 21.484375 6.890625 26.8125 6.890625 
Q 36.078125 6.890625 40.9375 10.546875 
Q 45.796875 14.203125 45.796875 21.1875 
Q 45.796875 27.640625 41.28125 31.265625 
Q 36.765625 34.90625 28.71875 34.90625 
L 20.21875 34.90625 
L 20.21875 43.015625 
L 29.109375 43.015625 
Q 36.375 43.015625 40.234375 45.921875 
Q 44.09375 48.828125 44.09375 54.296875 
Q 44.09375 59.90625 40.109375 62.90625 
Q 36.140625 65.921875 28.71875 65.921875 
Q 24.65625 65.921875 20.015625 65.03125 
Q 15.375 64.15625 9.8125 62.3125 
L 9.8125 71.09375 
Q 15.4375 72.65625 20.34375 73.4375 
Q 25.25 74.21875 29.59375 74.21875 
Q 40.828125 74.21875 47.359375 69.109375 
Q 53.90625 64.015625 53.90625 55.328125 
Q 53.90625 49.265625 50.4375 45.09375 
Q 46.96875 40.921875 40.578125 39.3125 
z
" id="DejaVuSans-51"/>
      </defs>
      <g transform="translate(25.895312 212.311219)scale(0.1 -0.1)">
       <use xlink:href="#DejaVuSans-8722"/>
       <use x="83.789062" xlink:href="#DejaVuSans-51"/>
       <use x="147.412109" xlink:href="#DejaVuSans-48"/>
      </g>
     </g>
    </g>
    <g id="ytick_3">
     <g id="line2d_25">
      <path clip-path="url(#p98be932d3f)" d="M 54 165.024 
L 388.8 165.024 
" style="fill:none;stroke:#b0b0b0;stroke-linecap:square;stroke-width:0.8;"/>
     </g>
     <g id="line2d_26">
      <g>
       <use style="stroke:#000000;stroke-width:0.8;" x="54" xlink:href="#m10e7331886" y="165.024"/>
      </g>
     </g>
     <g id="text_13">
      <!-- −20 -->
      <g transform="translate(25.895312 168.823219)scale(0.1 -0.1)">
       <use xlink:href="#DejaVuSans-8722"/>
       <use x="83.789062" xlink:href="#DejaVuSans-50"/>
       <use x="147.412109" xlink:href="#DejaVuSans-48"/>
      </g>
     </g>
    </g>
    <g id="ytick_4">
     <g id="line2d_27">
      <path clip-path="url(#p98be932d3f)" d="M 54 121.536 
L 388.8 121.536 
" style="fill:none;stroke:#b0b0b0;stroke-linecap:square;stroke-width:0.8;"/>
     </g>
     <g id="line2d_28">
      <g>
       <use style="stroke:#000000;stroke-width:0.8;" x="54" xlink:href="#m10e7331886" y="121.536"/>
      </g>
     </g>
     <g id="text_14">
      <!-- −10 -->
      <g transform="translate(25.895312 125.335219)scale(0.1 -0.1)">
       <use xlink:href="#DejaVuSans-8722"/>
       <use x="83.789062" xlink:href="#DejaVuSans-49"/>
       <use x="147.412109" xlink:href="#DejaVuSans-48"/>
      </g>
     </g>
    </g>
    <g id="ytick_5">
     <g id="line2d_29">
      <path clip-path="url(#p98be932d3f)" d="M 54 78.048 
L 388.8 78.048 
" style="fill:none;stroke:#b0b0b0;stroke-linecap:square;stroke-width:0.8;"/>
     </g>
     <g id="line2d_30">
      <g>
       <use style="stroke:#000000;stroke-width:0.8;" x="54" xlink:href="#m10e7331886" y="78.048"/>
      </g>
     </g>
     <g id="text_15">
      <!-- 0 -->
      <g transform="translate(40.6375 81.847219)scale(0.1 -0.1)">
       <use xlink:href="#DejaVuSans-48"/>
      </g>
     </g>
    </g>
    <g id="ytick_6">
     <g id="line2d_31">
      <path clip-path="url(#p98be932d3f)" d="M 54 34.56 
L 388.8 34.56 
" style="fill:none;stroke:#b0b0b0;stroke-linecap:square;stroke-width:0.8;"/>
     </g>
     <g id="line2d_32">
      <g>
       <use style="stroke:#000000;stroke-width:0.8;" x="54" xlink:href="#m10e7331886" y="34.56"/>
      </g>
     </g>
     <g id="text_16">
      <!-- 10 -->
      <g transform="translate(34.275 38.359219)scale(0.1 -0.1)">
       <use xlink:href="#DejaVuSans-49"/>
       <use x="63.623047" xlink:href="#DejaVuSans-48"/>
      </g>
     </g>
    </g>
   </g>
   <g id="line2d_33">
    <path clip-path="url(#p98be932d3f)" d="M 54 78.083752 
L 54.799219 78.148243 
L 55.598438 78.34198 
L 56.397656 78.665765 
L 57.196875 79.120952 
L 58.795313 80.43388 
L 60.39375 82.303994 
L 61.992188 84.766612 
L 63.590625 87.872586 
L 65.189063 91.693969 
L 66.7875 96.333458 
L 68.385937 101.94078 
L 69.984375 108.742992 
L 71.582813 117.105457 
L 73.18125 127.670374 
L 73.980469 134.135691 
L 74.779688 141.732699 
L 75.578906 150.932261 
L 76.378125 162.612337 
L 77.177344 178.727976 
L 77.976562 205.412945 
L 78.477941 289 
M 79.084715 289 
L 79.575 210.197271 
L 80.374219 184.75906 
L 81.173438 170.68789 
L 81.972656 161.26449 
L 82.771875 154.421179 
L 83.571094 149.246362 
L 84.370313 145.258395 
L 85.169531 142.173154 
L 85.96875 139.810391 
L 86.767969 138.050025 
L 87.567188 136.80952 
L 88.366406 136.031299 
L 89.165625 135.675349 
L 89.964844 135.714754 
L 90.764062 136.132979 
L 91.563281 136.922318 
L 92.3625 138.083161 
L 93.161719 139.623972 
L 93.960938 141.561954 
L 94.760156 143.924535 
L 95.559375 146.751965 
L 96.358594 150.101597 
L 97.157813 154.054958 
L 97.957031 158.72974 
L 98.75625 164.301206 
L 99.555469 171.043252 
L 100.354688 179.415402 
L 101.153906 190.275351 
L 101.953125 205.525865 
L 102.752344 231.061189 
L 103.174169 289 
M 103.949355 289 
L 104.350781 236.690484 
L 105.15 210.121116 
L 105.949219 195.320457 
L 106.748438 185.282095 
L 107.547656 177.881755 
L 108.346875 172.188332 
L 109.146094 167.711177 
L 109.945312 164.161126 
L 110.744531 161.354692 
L 111.54375 159.169483 
L 112.342969 157.521192 
L 113.142188 156.350798 
L 113.941406 155.617069 
L 114.740625 155.292018 
L 115.539844 155.35815 
L 116.339063 155.806869 
L 117.138281 156.637727 
L 117.9375 157.858372 
L 118.736719 159.485188 
L 119.535938 161.544745 
L 120.335156 164.076346 
L 121.134375 167.136241 
L 121.933594 170.80456 
L 122.732813 175.197081 
L 123.532031 180.486181 
L 124.33125 186.940908 
L 125.130469 195.011548 
L 125.929688 205.534982 
L 126.728906 220.353672 
L 127.528125 245.078467 
L 127.905036 289 
M 128.788619 289 
L 129.126563 252.946159 
L 129.925781 225.430398 
L 130.725 210.197271 
L 131.524219 199.851039 
L 132.323438 192.194238 
L 133.122656 186.271871 
L 133.921875 181.583093 
L 134.721094 177.833607 
L 135.520312 174.83702 
L 136.319531 172.469138 
L 137.11875 170.644454 
L 137.917969 169.303096 
L 138.717188 168.403192 
L 139.516406 167.916249 
L 140.315625 167.824352 
L 141.114844 168.118536 
L 141.914062 168.798012 
L 142.713281 169.870096 
L 143.5125 171.350827 
L 144.311719 173.266395 
L 145.110938 175.655653 
L 145.910156 178.574281 
L 146.709375 182.101638 
L 147.508594 186.352371 
L 148.307813 191.497067 
L 149.107031 197.801672 
L 149.90625 205.71045 
L 150.705469 216.046624 
L 151.504688 230.613223 
L 152.303906 254.839296 
L 152.62402 289 
M 153.642048 289 
L 153.902344 264.305875 
L 154.701563 236.152668 
L 155.500781 220.650501 
L 156.3 210.121116 
L 157.099219 202.315371 
L 157.898438 196.261613 
L 158.697656 191.451965 
L 159.496875 187.588624 
L 160.296094 184.48323 
L 161.095313 182.010387 
L 161.894531 180.083793 
L 162.69375 178.643013 
L 163.492969 177.645749 
L 164.292188 177.063167 
L 165.091406 176.877051 
L 165.890625 177.07816 
L 166.689844 177.665426 
L 167.489063 178.645861 
L 168.288281 180.035158 
L 169.0875 181.859079 
L 169.886719 184.155922 
L 170.685938 186.980609 
L 171.485156 190.4114 
L 172.284375 194.561268 
L 173.083594 199.59807 
L 173.882812 205.782934 
L 174.682031 213.550692 
L 175.48125 223.70316 
L 176.280469 237.981958 
L 177.079688 261.538718 
L 177.369308 289 
M 178.487243 289 
L 178.678125 273.83855 
L 179.477344 244.712508 
L 180.276563 228.87126 
L 181.075781 218.144979 
L 181.875 210.197271 
L 182.674219 204.028737 
L 183.473438 199.119906 
L 184.272656 195.167261 
L 185.071875 191.979292 
L 185.871094 189.428713 
L 186.670313 187.428011 
L 187.469531 185.915933 
L 188.26875 184.849597 
L 189.067969 184.199733 
L 189.867188 183.947783 
L 190.666406 184.08422 
L 191.465625 184.607724 
L 192.264844 185.525069 
L 193.064063 186.851698 
L 193.863281 188.6131 
L 194.6625 190.847242 
L 195.461719 193.608611 
L 196.260938 196.97487 
L 197.060156 201.058094 
L 197.859375 206.0247 
L 198.658594 212.133301 
L 199.457813 219.813839 
L 200.257031 229.857118 
L 201.05625 243.973472 
L 201.855469 267.176051 
L 202.098532 289 
M 203.343065 289 
L 203.453906 280.959482 
L 204.253125 251.282062 
L 205.052344 235.244872 
L 205.851563 224.400236 
L 206.650781 216.363816 
L 207.45 210.121116 
L 208.249219 205.146386 
L 209.048438 201.133014 
L 209.847656 197.887775 
L 210.646875 195.282344 
L 211.446094 193.228527 
L 212.245313 191.664595 
L 213.044531 190.547306 
L 213.84375 189.847098 
L 214.642969 189.54516 
L 215.442188 189.63172 
L 216.241406 190.105207 
L 217.040625 190.972115 
L 217.839844 192.247554 
L 218.639063 193.956591 
L 219.438281 196.136636 
L 220.2375 198.841401 
L 221.036719 202.147414 
L 221.835938 206.165012 
L 222.635156 211.057765 
L 223.434375 217.079276 
L 224.233594 224.649721 
L 225.032812 234.537947 
L 225.832031 248.392389 
L 226.63125 270.957533 
L 226.853078 289 
M 228.212344 289 
L 228.229687 287.95828 
L 229.028906 257.152393 
L 229.828125 240.766879 
L 230.627344 229.738725 
L 231.426563 221.58078 
L 232.225781 215.246603 
L 233.025 210.197271 
L 233.824219 206.119743 
L 234.623438 202.817275 
L 235.422656 200.15945 
L 236.221875 198.056745 
L 237.021094 196.44654 
L 237.820313 195.284969 
L 238.619531 194.542009 
L 239.41875 194.198494 
L 240.217969 194.244368 
L 241.017188 194.677811 
L 241.816406 195.505091 
L 242.615625 196.741094 
L 243.414844 198.410641 
L 244.214063 200.550857 
L 245.013281 203.215086 
L 245.8125 206.479355 
L 246.611719 210.453255 
L 247.410938 215.29917 
L 248.210156 221.268642 
L 249.009375 228.777878 
L 249.808594 238.586874 
L 250.607813 252.319375 
L 251.407031 274.614763 
L 251.590604 289 
M 253.10579 289 
L 253.804688 261.618083 
L 254.603906 245.069632 
L 255.403125 233.949004 
L 256.202344 225.724802 
L 257.001563 219.336974 
L 257.800781 214.241004 
L 258.6 210.121116 
L 259.399219 206.77906 
L 260.198438 204.083505 
L 260.997656 201.944332 
L 261.796875 200.298499 
L 262.596094 199.101819 
L 263.395313 198.324006 
L 264.194531 197.945658 
L 264.99375 197.956487 
L 265.792969 198.354431 
L 266.592188 199.14548 
L 267.391406 200.344182 
L 268.190625 201.974933 
L 268.989844 204.07428 
L 269.789062 206.694771 
L 270.588281 209.911258 
L 271.3875 213.831532 
L 272.186719 218.615041 
L 272.985938 224.508175 
L 273.785156 231.917161 
L 274.584375 241.579784 
L 275.383594 255.058254 
L 276.182813 276.734726 
L 276.353639 289 
M 278.016794 289 
L 278.580469 265.977508 
L 279.379688 249.051744 
L 280.178906 237.742839 
L 280.978125 229.399851 
L 281.777344 222.926454 
L 282.576563 217.763373 
L 283.375781 213.587689 
L 284.175 210.197271 
L 284.974219 207.458492 
L 285.773438 205.279782 
L 286.572656 203.597134 
L 287.371875 202.365687 
L 288.171094 201.554666 
L 288.970313 201.144296 
L 289.769531 201.123992 
L 290.56875 201.491445 
L 291.367969 202.252421 
L 292.167188 203.421256 
L 292.966406 205.02212 
L 293.765625 207.091308 
L 294.564844 209.681047 
L 295.364063 212.865765 
L 296.163281 216.752625 
L 296.9625 221.500095 
L 297.761719 227.35287 
L 298.560938 234.713944 
L 299.360156 244.313981 
L 300.159375 257.695664 
L 300.958594 279.161055 
L 301.099354 289 
M 302.875783 289 
L 303.35625 269.089318 
L 304.155469 252.021598 
L 304.954688 240.635013 
L 305.753906 232.237683 
L 306.553125 225.72099 
L 307.352344 220.520672 
L 308.151563 216.31139 
L 308.950781 212.889682 
L 309.75 210.121116 
L 310.549219 207.913594 
L 311.348438 206.202734 
L 312.147656 204.943387 
L 312.946875 204.104533 
L 313.746094 203.666177 
L 314.545313 203.617513 
L 315.344531 203.955991 
L 316.14375 204.687103 
L 316.942969 205.824845 
L 317.742188 207.392953 
L 318.541406 209.427137 
L 319.340625 211.978804 
L 320.139844 215.121185 
L 320.939063 218.959604 
L 321.738281 223.64954 
L 322.5375 229.430461 
L 323.336719 236.695314 
L 324.135938 246.15261 
L 324.935156 259.284683 
L 325.734375 280.150136 
L 325.871438 289 
M 327.750213 289 
L 328.132031 272.427522 
L 328.93125 254.947418 
L 329.730469 243.362582 
L 330.529688 234.843925 
L 331.328906 228.242217 
L 332.128125 222.97689 
L 332.927344 218.714785 
L 333.726562 215.248216 
L 334.525781 212.440264 
L 335.325 210.197271 
L 336.124219 208.453818 
L 336.923438 207.164036 
L 337.722656 206.296389 
L 338.521875 205.830489 
L 339.321094 205.755225 
L 340.120313 206.067793 
L 340.919531 206.773465 
L 341.71875 207.886031 
L 342.517969 209.429016 
L 343.317188 211.437898 
L 344.116406 213.963805 
L 344.915625 217.079595 
L 345.714844 220.890062 
L 346.514063 225.549853 
L 347.313281 231.297028 
L 348.1125 238.52186 
L 348.911719 247.927042 
L 349.710938 260.979236 
L 350.510156 281.674951 
L 350.625925 289 
M 352.578988 289 
L 352.907813 274.537594 
L 353.707031 256.929637 
L 354.50625 245.276545 
L 355.305469 236.710749 
L 356.104688 230.071751 
L 356.903906 224.774472 
L 357.703125 220.483579 
L 358.502344 216.990194 
L 359.301563 214.156683 
L 360.100781 211.888909 
L 360.9 210.121116 
L 361.699219 208.80717 
L 362.498438 207.915309 
L 363.297656 207.424936 
L 364.096875 207.324724 
L 364.896094 207.611637 
L 365.695313 208.290671 
L 366.494531 209.375277 
L 367.29375 210.888544 
L 368.092969 212.86536 
L 368.892187 215.356025 
L 369.691406 218.432187 
L 370.490625 222.196791 
L 371.289844 226.80148 
L 372.089063 232.479093 
L 372.888281 239.609922 
L 373.6875 248.874878 
L 374.486719 261.682225 
L 375.285938 281.800671 
L 375.408303 289 
M 377.426304 289 
L 377.683594 277.089301 
L 378.482813 259.032232 
L 379.282031 247.169571 
L 380.08125 238.478227 
L 380.880469 231.752852 
L 381.679688 226.390606 
L 382.478906 222.047712 
L 383.278125 218.510762 
L 384.077344 215.639466 
L 384.876562 213.338027 
L 385.675781 211.539592 
L 386.475 210.197271 
L 387.274219 209.278757 
L 388.073437 208.763044 
L 388.872656 208.638491 
L 389.671875 208.901803 
L 390.471094 209.557756 
L 391.270313 210.619598 
L 392.069531 212.110216 
L 392.86875 214.064281 
L 393.667969 216.531839 
L 394.467188 219.584207 
L 395.266406 223.323858 
L 396.065625 227.901717 
L 396.864844 233.549404 
L 397.664063 240.644931 
L 398.463281 249.864299 
L 399.2625 262.602761 
L 400.061719 282.57916 
L 400.172627 289 
M 402.232904 289 
L 402.459375 278.383451 
L 403.258594 260.20646 
L 404.057813 248.281074 
L 404.857031 239.546769 
L 405.65625 232.787521 
L 406.455469 227.396273 
L 407.254688 223.027233 
L 408.053906 219.465894 
L 408.853125 216.571303 
L 409.652344 214.247225 
L 410.451563 212.42649 
L 411.250781 211.061961 
L 412.05 210.121116 
L 412.849219 209.582749 
L 413.648438 209.435011 
L 414.447656 209.674377 
L 415.246875 210.30535 
L 416.046094 211.340843 
L 416.845313 212.803306 
L 417.644531 214.726824 
L 418.44375 217.160615 
L 419.242969 220.174795 
L 420.042187 223.869997 
L 420.841406 228.394174 
L 421.640625 233.973798 
L 422.439844 240.97711 
L 423.239063 250.058982 
L 424.038281 262.558906 
L 424.8375 281.985005 
L 424.967055 289 
M 427.05894 289 
L 427.235156 280.261225 
L 428.034375 261.598967 
L 428.833594 249.453004 
L 429.632813 240.588671 
L 430.432031 233.741075 
L 431.23125 228.284082 
L 432.030469 223.862908 
L 433 219.633473 
L 433 219.633473 
" style="fill:none;stroke:#1f77b4;stroke-linecap:square;stroke-width:1.5;"/>
   </g>
   <g id="line2d_34">
    <path clip-path="url(#p98be932d3f)" d="M 54 98.501934 
L 55.598438 98.365146 
L 57.196875 97.960448 
L 58.795313 97.304299 
L 60.39375 96.422415 
L 62.791406 94.749251 
L 65.189063 92.769672 
L 69.984375 88.408863 
L 73.980469 84.896591 
L 76.378125 83.020331 
L 78.775781 81.391246 
L 81.173438 80.052636 
L 83.571094 79.036513 
L 85.169531 78.550112 
L 86.767969 78.222897 
L 88.366406 78.059197 
L 89.964844 78.062577 
L 91.563281 78.236014 
L 93.161719 78.58205 
L 94.760156 79.102922 
L 96.358594 79.800674 
L 97.957031 80.67724 
L 99.555469 81.734532 
L 101.953125 83.663639 
L 104.350781 86.010916 
L 106.748438 88.784438 
L 109.146094 91.993655 
L 111.54375 95.649816 
L 113.941406 99.766448 
L 116.339063 104.359924 
L 118.736719 109.450189 
L 121.134375 115.061717 
L 123.532031 121.224818 
L 125.929688 127.977486 
L 128.327344 135.36808 
L 130.725 143.459365 
L 133.122656 152.334809 
L 135.520312 162.108877 
L 137.917969 172.944792 
L 140.315625 185.087379 
L 141.914062 194.092803 
L 143.5125 204.027481 
L 145.110938 215.166415 
L 146.709375 227.963732 
L 148.307813 243.254841 
L 149.107031 252.327904 
L 149.90625 262.86236 
L 150.705469 275.628802 
L 151.347519 289 
M 156.312599 289 
L 157.099219 283.250854 
L 157.898438 279.171874 
L 158.697656 276.315369 
L 159.496875 274.367865 
L 160.296094 273.132216 
L 161.095313 272.477461 
L 161.894531 272.313307 
L 162.69375 272.576063 
L 163.492969 273.220419 
L 164.292188 274.214445 
L 165.091406 275.536485 
L 165.890625 277.173247 
L 166.689844 279.118705 
L 168.288281 283.945537 
L 169.614801 289 
L 169.614801 289 
" style="fill:none;stroke:#ff7f0e;stroke-linecap:square;stroke-width:1.5;"/>
   </g>
   <g id="line2d_35">
    <path clip-path="url(#p98be932d3f)" d="M 54 210.465032 
L 54.799219 210.133132 
L 55.598438 209.154912 
L 56.397656 207.579887 
L 57.196875 205.481798 
L 58.795313 200.071063 
L 60.39375 193.625612 
L 67.586719 163.287513 
L 69.984375 154.434287 
L 72.382031 146.388366 
L 74.779688 139.098564 
L 77.177344 132.496216 
L 79.575 126.512451 
L 81.972656 121.084514 
L 84.370313 116.157461 
L 86.767969 111.683973 
L 89.165625 107.623504 
L 91.563281 103.941242 
L 93.960938 100.607116 
L 96.358594 97.594905 
L 98.75625 94.881466 
L 101.153906 92.446088 
L 103.551563 90.26994 
L 105.949219 88.335614 
L 108.346875 86.626747 
L 110.744531 85.127707 
L 113.941406 83.429235 
L 117.138281 82.041683 
L 120.335156 80.930232 
L 123.532031 80.060219 
L 126.728906 79.397242 
L 130.725 78.808465 
L 135.520312 78.37238 
L 141.114844 78.120358 
L 148.307813 78.049876 
L 155.500781 78.212601 
L 161.095313 78.575762 
L 165.091406 79.036949 
L 169.0875 79.733857 
L 172.284375 80.50592 
L 175.48125 81.507315 
L 178.678125 82.774182 
L 181.875 84.342588 
L 184.272656 85.738336 
L 186.670313 87.3389 
L 189.067969 89.159352 
L 191.465625 91.214913 
L 193.863281 93.52111 
L 196.260938 96.09399 
L 198.658594 98.950363 
L 201.05625 102.108116 
L 203.453906 105.58659 
L 205.851563 109.407039 
L 208.249219 113.59322 
L 210.646875 118.172142 
L 213.044531 123.17504 
L 215.442188 128.6387 
L 217.839844 134.607269 
L 220.2375 141.134842 
L 222.635156 148.289252 
L 225.032812 156.157867 
L 227.430469 164.856845 
L 229.828125 174.546755 
L 232.225781 185.460762 
L 233.824219 193.587056 
L 235.422656 202.573308 
L 237.021094 212.657338 
L 238.619531 224.217162 
L 240.217969 237.913319 
L 241.017188 245.929353 
L 241.816406 255.077468 
L 242.615625 265.845001 
L 243.414844 279.147388 
L 243.854674 289 
M 248.71615 289 
L 249.009375 286.095485 
L 249.808594 280.671368 
L 250.607813 276.8658 
L 251.407031 274.213754 
L 252.20625 272.43987 
L 253.005469 271.369231 
L 253.804688 270.885424 
L 254.603906 270.908757 
L 255.403125 271.384104 
L 256.202344 272.273779 
L 257.001563 273.553259 
L 257.800781 275.208643 
L 258.6 277.235273 
L 259.399219 279.637232 
L 260.198438 282.427622 
L 261.735785 289 
L 261.735785 289 
" style="fill:none;stroke:#2ca02c;stroke-linecap:square;stroke-width:1.5;"/>
   </g>
   <g id="patch_3">
    <path d="M 54 252 
L 54 34.56 
" style="fill:none;stroke:#000000;stroke-linecap:square;stroke-linejoin:miter;stroke-width:0.8;"/>
   </g>
   <g id="patch_4">
    <path d="M 388.8 252 
L 388.8 34.56 
" style="fill:none;stroke:#000000;stroke-linecap:square;stroke-linejoin:miter;stroke-width:0.8;"/>
   </g>
   <g id="patch_5">
    <path d="M 54 252 
L 388.8 252 
" style="fill:none;stroke:#000000;stroke-linecap:square;stroke-linejoin:miter;stroke-width:0.8;"/>
   </g>
   <g id="patch_6">
    <path d="M 54 34.56 
L 388.8 34.56 
" style="fill:none;stroke:#000000;stroke-linecap:square;stroke-linejoin:miter;stroke-width:0.8;"/>
   </g>
   <g id="legend_1">
    <g id="patch_7">
     <path d="M 326.904688 86.594375 
L 381.8 86.594375 
Q 383.8 86.594375 383.8 84.594375 
L 383.8 41.56 
Q 383.8 39.56 381.8 39.56 
L 326.904688 39.56 
Q 324.904688 39.56 324.904688 41.56 
L 324.904688 84.594375 
Q 324.904688 86.594375 326.904688 86.594375 
z
" style="fill:#ffffff;opacity:0.8;stroke:#cccccc;stroke-linejoin:miter;"/>
    </g>
    <g id="line2d_36">
     <path d="M 328.904688 47.658438 
L 348.904688 47.658438 
" style="fill:none;stroke:#1f77b4;stroke-linecap:square;stroke-width:1.5;"/>
    </g>
    <g id="line2d_37"/>
    <g id="text_17">
     <!-- bass -->
     <defs>
      <path d="M 48.6875 27.296875 
Q 48.6875 37.203125 44.609375 42.84375 
Q 40.53125 48.484375 33.40625 48.484375 
Q 26.265625 48.484375 22.1875 42.84375 
Q 18.109375 37.203125 18.109375 27.296875 
Q 18.109375 17.390625 22.1875 11.75 
Q 26.265625 6.109375 33.40625 6.109375 
Q 40.53125 6.109375 44.609375 11.75 
Q 48.6875 17.390625 48.6875 27.296875 
z
M 18.109375 46.390625 
Q 20.953125 51.265625 25.265625 53.625 
Q 29.59375 56 35.59375 56 
Q 45.5625 56 51.78125 48.09375 
Q 58.015625 40.1875 58.015625 27.296875 
Q 58.015625 14.40625 51.78125 6.484375 
Q 45.5625 -1.421875 35.59375 -1.421875 
Q 29.59375 -1.421875 25.265625 0.953125 
Q 20.953125 3.328125 18.109375 8.203125 
L 18.109375 0 
L 9.078125 0 
L 9.078125 75.984375 
L 18.109375 75.984375 
z
" id="DejaVuSans-98"/>
      <path d="M 34.28125 27.484375 
Q 23.390625 27.484375 19.1875 25 
Q 14.984375 22.515625 14.984375 16.5 
Q 14.984375 11.71875 18.140625 8.90625 
Q 21.296875 6.109375 26.703125 6.109375 
Q 34.1875 6.109375 38.703125 11.40625 
Q 43.21875 16.703125 43.21875 25.484375 
L 43.21875 27.484375 
z
M 52.203125 31.203125 
L 52.203125 0 
L 43.21875 0 
L 43.21875 8.296875 
Q 40.140625 3.328125 35.546875 0.953125 
Q 30.953125 -1.421875 24.3125 -1.421875 
Q 15.921875 -1.421875 10.953125 3.296875 
Q 6 8.015625 6 15.921875 
Q 6 25.140625 12.171875 29.828125 
Q 18.359375 34.515625 30.609375 34.515625 
L 43.21875 34.515625 
L 43.21875 35.40625 
Q 43.21875 41.609375 39.140625 45 
Q 35.0625 48.390625 27.6875 48.390625 
Q 23 48.390625 18.546875 47.265625 
Q 14.109375 46.140625 10.015625 43.890625 
L 10.015625 52.203125 
Q 14.9375 54.109375 19.578125 55.046875 
Q 24.21875 56 28.609375 56 
Q 40.484375 56 46.34375 49.84375 
Q 52.203125 43.703125 52.203125 31.203125 
z
" id="DejaVuSans-97"/>
      <path d="M 44.28125 53.078125 
L 44.28125 44.578125 
Q 40.484375 46.53125 36.375 47.5 
Q 32.28125 48.484375 27.875 48.484375 
Q 21.1875 48.484375 17.84375 46.4375 
Q 14.5 44.390625 14.5 40.28125 
Q 14.5 37.15625 16.890625 35.375 
Q 19.28125 33.59375 26.515625 31.984375 
L 29.59375 31.296875 
Q 39.15625 29.25 43.1875 25.515625 
Q 47.21875 21.78125 47.21875 15.09375 
Q 47.21875 7.46875 41.1875 3.015625 
Q 35.15625 -1.421875 24.609375 -1.421875 
Q 20.21875 -1.421875 15.453125 -0.5625 
Q 10.6875 0.296875 5.421875 2 
L 5.421875 11.28125 
Q 10.40625 8.6875 15.234375 7.390625 
Q 20.0625 6.109375 24.8125 6.109375 
Q 31.15625 6.109375 34.5625 8.28125 
Q 37.984375 10.453125 37.984375 14.40625 
Q 37.984375 18.0625 35.515625 20.015625 
Q 33.0625 21.96875 24.703125 23.78125 
L 21.578125 24.515625 
Q 13.234375 26.265625 9.515625 29.90625 
Q 5.8125 33.546875 5.8125 39.890625 
Q 5.8125 47.609375 11.28125 51.796875 
Q 16.75 56 26.8125 56 
Q 31.78125 56 36.171875 55.265625 
Q 40.578125 54.546875 44.28125 53.078125 
z
" id="DejaVuSans-115"/>
     </defs>
     <g transform="translate(356.904688 51.158438)scale(0.1 -0.1)">
      <use xlink:href="#DejaVuSans-98"/>
      <use x="63.476562" xlink:href="#DejaVuSans-97"/>
      <use x="124.755859" xlink:href="#DejaVuSans-115"/>
      <use x="176.855469" xlink:href="#DejaVuSans-115"/>
     </g>
    </g>
    <g id="line2d_38">
     <path d="M 328.904688 62.336563 
L 348.904688 62.336563 
" style="fill:none;stroke:#ff7f0e;stroke-linecap:square;stroke-width:1.5;"/>
    </g>
    <g id="line2d_39"/>
    <g id="text_18">
     <!-- mid -->
     <defs>
      <path d="M 52 44.1875 
Q 55.375 50.25 60.0625 53.125 
Q 64.75 56 71.09375 56 
Q 79.640625 56 84.28125 50.015625 
Q 88.921875 44.046875 88.921875 33.015625 
L 88.921875 0 
L 79.890625 0 
L 79.890625 32.71875 
Q 79.890625 40.578125 77.09375 44.375 
Q 74.3125 48.1875 68.609375 48.1875 
Q 61.625 48.1875 57.5625 43.546875 
Q 53.515625 38.921875 53.515625 30.90625 
L 53.515625 0 
L 44.484375 0 
L 44.484375 32.71875 
Q 44.484375 40.625 41.703125 44.40625 
Q 38.921875 48.1875 33.109375 48.1875 
Q 26.21875 48.1875 22.15625 43.53125 
Q 18.109375 38.875 18.109375 30.90625 
L 18.109375 0 
L 9.078125 0 
L 9.078125 54.6875 
L 18.109375 54.6875 
L 18.109375 46.1875 
Q 21.1875 51.21875 25.484375 53.609375 
Q 29.78125 56 35.6875 56 
Q 41.65625 56 45.828125 52.96875 
Q 50 49.953125 52 44.1875 
z
" id="DejaVuSans-109"/>
      <path d="M 9.421875 54.6875 
L 18.40625 54.6875 
L 18.40625 0 
L 9.421875 0 
z
M 9.421875 75.984375 
L 18.40625 75.984375 
L 18.40625 64.59375 
L 9.421875 64.59375 
z
" id="DejaVuSans-105"/>
      <path d="M 45.40625 46.390625 
L 45.40625 75.984375 
L 54.390625 75.984375 
L 54.390625 0 
L 45.40625 0 
L 45.40625 8.203125 
Q 42.578125 3.328125 38.25 0.953125 
Q 33.9375 -1.421875 27.875 -1.421875 
Q 17.96875 -1.421875 11.734375 6.484375 
Q 5.515625 14.40625 5.515625 27.296875 
Q 5.515625 40.1875 11.734375 48.09375 
Q 17.96875 56 27.875 56 
Q 33.9375 56 38.25 53.625 
Q 42.578125 51.265625 45.40625 46.390625 
z
M 14.796875 27.296875 
Q 14.796875 17.390625 18.875 11.75 
Q 22.953125 6.109375 30.078125 6.109375 
Q 37.203125 6.109375 41.296875 11.75 
Q 45.40625 17.390625 45.40625 27.296875 
Q 45.40625 37.203125 41.296875 42.84375 
Q 37.203125 48.484375 30.078125 48.484375 
Q 22.953125 48.484375 18.875 42.84375 
Q 14.796875 37.203125 14.796875 27.296875 
z
" id="DejaVuSans-100"/>
     </defs>
     <g transform="translate(356.904688 65.836563)scale(0.1 -0.1)">
      <use xlink:href="#DejaVuSans-109"/>
      <use x="97.412109" xlink:href="#DejaVuSans-105"/>
      <use x="125.195312" xlink:href="#DejaVuSans-100"/>
     </g>
    </g>
    <g id="line2d_40">
     <path d="M 328.904688 77.014688 
L 348.904688 77.014688 
" style="fill:none;stroke:#2ca02c;stroke-linecap:square;stroke-width:1.5;"/>
    </g>
    <g id="line2d_41"/>
    <g id="text_19">
     <!-- treb -->
     <defs>
      <path d="M 18.3125 70.21875 
L 18.3125 54.6875 
L 36.8125 54.6875 
L 36.8125 47.703125 
L 18.3125 47.703125 
L 18.3125 18.015625 
Q 18.3125 11.328125 20.140625 9.421875 
Q 21.96875 7.515625 27.59375 7.515625 
L 36.8125 7.515625 
L 36.8125 0 
L 27.59375 0 
Q 17.1875 0 13.234375 3.875 
Q 9.28125 7.765625 9.28125 18.015625 
L 9.28125 47.703125 
L 2.6875 47.703125 
L 2.6875 54.6875 
L 9.28125 54.6875 
L 9.28125 70.21875 
z
" id="DejaVuSans-116"/>
      <path d="M 41.109375 46.296875 
Q 39.59375 47.171875 37.8125 47.578125 
Q 36.03125 48 33.890625 48 
Q 26.265625 48 22.1875 43.046875 
Q 18.109375 38.09375 18.109375 28.8125 
L 18.109375 0 
L 9.078125 0 
L 9.078125 54.6875 
L 18.109375 54.6875 
L 18.109375 46.1875 
Q 20.953125 51.171875 25.484375 53.578125 
Q 30.03125 56 36.53125 56 
Q 37.453125 56 38.578125 55.875 
Q 39.703125 55.765625 41.0625 55.515625 
z
" id="DejaVuSans-114"/>
      <path d="M 56.203125 29.59375 
L 56.203125 25.203125 
L 14.890625 25.203125 
Q 15.484375 15.921875 20.484375 11.0625 
Q 25.484375 6.203125 34.421875 6.203125 
Q 39.59375 6.203125 44.453125 7.46875 
Q 49.3125 8.734375 54.109375 11.28125 
L 54.109375 2.78125 
Q 49.265625 0.734375 44.1875 -0.34375 
Q 39.109375 -1.421875 33.890625 -1.421875 
Q 20.796875 -1.421875 13.15625 6.1875 
Q 5.515625 13.8125 5.515625 26.8125 
Q 5.515625 40.234375 12.765625 48.109375 
Q 20.015625 56 32.328125 56 
Q 43.359375 56 49.78125 48.890625 
Q 56.203125 41.796875 56.203125 29.59375 
z
M 47.21875 32.234375 
Q 47.125 39.59375 43.09375 43.984375 
Q 39.0625 48.390625 32.421875 48.390625 
Q 24.90625 48.390625 20.390625 44.140625 
Q 15.875 39.890625 15.1875 32.171875 
z
" id="DejaVuSans-101"/>
     </defs>
     <g transform="translate(356.904688 80.514688)scale(0.1 -0.1)">
      <use xlink:href="#DejaVuSans-116"/>
      <use x="39.208984" xlink:href="#DejaVuSans-114"/>
      <use x="80.291016" xlink:href="#DejaVuSans-101"/>
      <use x="141.814453" xlink:href="#DejaVuSans-98"/>
     </g>
    </g>
   </g>
  </g>
 </g>
 <defs>
  <clipPath id="p98be932d3f">
   <rect height="217.44" width="334.8" x="54" y="34.56"/>
  </clipPath>
 </defs>
</svg>
